<?xml version="1.0" encoding="UTF-8"?>
<!DOCTYPE svg PUBLIC "-//W3C//DTD SVG 1.1//EN" "http://www.w3.org/Graphics/SVG/1.1/DTD/svg11.dtd">
<svg xmlns="http://www.w3.org/2000/svg" version="1.1" width="500px" height="500px" style="shape-rendering:geometricPrecision; text-rendering:geometricPrecision; image-rendering:optimizeQuality; fill-rule:evenodd; clip-rule:evenodd" xmlns:xlink="http://www.w3.org/1999/xlink">
<g><path style="opacity:1" fill="#c98940" d="M 335.5,59.5 C 335.694,61.9118 337.027,62.9118 339.5,62.5C 339.667,84.8358 339.5,107.169 339,129.5C 322.241,130.326 305.407,130.826 288.5,131C 285.881,131.151 283.547,131.985 281.5,133.5C 279.12,136.849 277.286,140.516 276,144.5C 275.5,158.163 275.333,171.829 275.5,185.5C 296.833,185.5 318.167,185.5 339.5,185.5C 339.666,190.844 339.499,196.177 339,201.5C 336.736,219.7 334.569,238.033 332.5,256.5C 313.5,256.5 294.5,256.5 275.5,256.5C 275.5,275.833 275.5,295.167 275.5,314.5C 272.928,313.292 270.594,313.625 268.5,315.5C 265.069,315.952 263.069,317.452 262.5,320C 261.251,320.74 260.251,320.573 259.5,319.5C 256.829,316.999 254.829,317.666 253.5,321.5C 252.417,321.539 251.417,321.873 250.5,322.5C 249.131,320.876 247.464,320.376 245.5,321C 249.167,322 249.5,323.667 246.5,326C 247.328,326.915 248.328,327.581 249.5,328C 248.944,328.383 248.611,328.883 248.5,329.5C 245.214,329.462 241.88,329.128 238.5,328.5C 238.918,327.778 239.584,327.278 240.5,327C 238.423,326.808 236.423,326.308 234.5,325.5C 234.667,325.167 234.833,324.833 235,324.5C 238.443,324.451 241.943,324.618 245.5,325C 245.833,324.667 246.167,324.333 246.5,324C 245.354,323.355 244.354,322.522 243.5,321.5C 242.784,322.311 241.95,322.978 241,323.5C 238.38,322.794 235.88,321.794 233.5,320.5C 232.369,321.751 231.036,322.751 229.5,323.5C 227.59,322.452 225.756,322.452 224,323.5C 223.583,322.244 222.75,321.577 221.5,321.5C 220.223,319.086 218.557,318.919 216.5,321C 216.833,321.333 217.167,321.667 217.5,322C 215.618,324.974 212.951,326.474 209.5,326.5C 209.263,325.209 209.596,324.209 210.5,323.5C 208.679,321.143 206.345,320.809 203.5,322.5C 203.167,321.833 202.833,321.167 202.5,320.5C 201.167,321.833 199.833,321.833 198.5,320.5C 197.478,320.855 196.811,321.522 196.5,322.5C 192.544,321.947 192.544,321.114 196.5,320C 197.696,319.346 197.696,318.846 196.5,318.5C 189.305,321.774 188.305,320.941 193.5,316C 190.918,315.458 188.918,316.292 187.5,318.5C 187.179,298.121 187.512,277.787 188.5,257.5C 174.937,256.825 161.437,256.158 148,255.5C 147.333,232.5 147.333,209.5 148,186.5C 161.333,185.833 174.667,185.167 188,184.5C 187.365,168.245 187.365,151.912 188,135.5C 193.852,86.9766 221.018,61.1433 269.5,58C 291.651,57.329 313.651,57.829 335.5,59.5 Z"/></g>
<g><path style="opacity:1" fill="#ca8a40" d="M 335.5,59.5 C 336.5,59.5 337.5,59.5 338.5,59.5C 336.969,60.9245 337.302,61.5912 339.5,61.5C 339.5,61.8333 339.5,62.1667 339.5,62.5C 337.027,62.9118 335.694,61.9118 335.5,59.5 Z"/></g>
<g><path style="opacity:1" fill="#c8893f" d="M 338.5,59.5 C 339.338,59.8417 339.672,60.5084 339.5,61.5C 337.302,61.5912 336.969,60.9245 338.5,59.5 Z"/></g>
<g><path style="opacity:1" fill="#c98a40" d="M 269.5,306.5 C 272.012,307.216 272.012,308.216 269.5,309.5C 268.913,308.767 268.913,307.767 269.5,306.5 Z"/></g>
<g><path style="opacity:1" fill="#ca8a40" d="M 269.5,310.5 C 271.429,310.231 273.095,310.731 274.5,312C 272.444,312.311 270.444,312.811 268.5,313.5C 268.167,313.167 267.833,312.833 267.5,312.5C 268.243,311.818 268.909,311.151 269.5,310.5 Z"/></g>
<g><path style="opacity:1" fill="#c98a40" d="M 211.5,313.5 C 212.756,313.461 213.756,313.961 214.5,315C 213.167,315.667 211.833,315.667 210.5,315C 211.056,314.617 211.389,314.117 211.5,313.5 Z"/></g>
<g><path style="opacity:1" fill="#c98940" d="M 275.5,314.5 C 275.5,314.833 275.5,315.167 275.5,315.5C 274.167,315.833 272.833,316.167 271.5,316.5C 270.209,316.737 269.209,316.404 268.5,315.5C 270.594,313.625 272.928,313.292 275.5,314.5 Z"/></g>
<g><path style="opacity:1" fill="#c98a40" d="M 218.5,314.5 C 220.465,314.948 220.798,315.948 219.5,317.5C 218.614,316.675 218.281,315.675 218.5,314.5 Z"/></g>
<g><path style="opacity:1" fill="#ca8a40" d="M 196.5,322.5 C 196.811,321.522 197.478,320.855 198.5,320.5C 199.833,321.833 201.167,321.833 202.5,320.5C 202.833,321.167 203.167,321.833 203.5,322.5C 206.345,320.809 208.679,321.143 210.5,323.5C 209.596,324.209 209.263,325.209 209.5,326.5C 212.951,326.474 215.618,324.974 217.5,322C 217.167,321.667 216.833,321.333 216.5,321C 218.557,318.919 220.223,319.086 221.5,321.5C 222.75,321.577 223.583,322.244 224,323.5C 225.756,322.452 227.59,322.452 229.5,323.5C 231.036,322.751 232.369,321.751 233.5,320.5C 235.88,321.794 238.38,322.794 241,323.5C 241.95,322.978 242.784,322.311 243.5,321.5C 244.354,322.522 245.354,323.355 246.5,324C 246.167,324.333 245.833,324.667 245.5,325C 241.943,324.618 238.443,324.451 235,324.5C 234.833,324.833 234.667,325.167 234.5,325.5C 236.423,326.308 238.423,326.808 240.5,327C 239.584,327.278 238.918,327.778 238.5,328.5C 241.88,329.128 245.214,329.462 248.5,329.5C 248.611,328.883 248.944,328.383 249.5,328C 248.328,327.581 247.328,326.915 246.5,326C 249.5,323.667 249.167,322 245.5,321C 247.464,320.376 249.131,320.876 250.5,322.5C 251.417,321.873 252.417,321.539 253.5,321.5C 254.829,317.666 256.829,316.999 259.5,319.5C 260.251,320.573 261.251,320.74 262.5,320C 263.069,317.452 265.069,315.952 268.5,315.5C 269.209,316.404 270.209,316.737 271.5,316.5C 273.073,318.836 274.406,318.836 275.5,316.5C 275.5,361.167 275.5,405.833 275.5,450.5C 246.167,450.5 216.833,450.5 187.5,450.5C 187.5,407.833 187.5,365.167 187.5,322.5C 193.951,323.58 193.951,322.914 187.5,320.5C 187.5,319.833 187.5,319.167 187.5,318.5C 188.918,316.292 190.918,315.458 193.5,316C 188.305,320.941 189.305,321.774 196.5,318.5C 197.696,318.846 197.696,319.346 196.5,320C 192.544,321.114 192.544,321.947 196.5,322.5 Z"/></g>
<g><path style="opacity:1" fill="#c98a40" d="M 227.5,316.5 C 228.708,315.218 230.042,315.218 231.5,316.5C 230.3,317.292 228.967,317.292 227.5,316.5 Z"/></g>
<g><path style="opacity:1" fill="#c8893f" d="M 275.5,315.5 C 275.5,315.833 275.5,316.167 275.5,316.5C 274.406,318.836 273.073,318.836 271.5,316.5C 272.833,316.167 274.167,315.833 275.5,315.5 Z"/></g>
<g><path style="opacity:1" fill="#ca8a40" d="M 203.5,316.5 C 204.873,316.343 206.207,316.51 207.5,317C 205.924,317.44 204.59,318.273 203.5,319.5C 202.438,318.575 202.438,317.575 203.5,316.5 Z"/></g>
<g><path style="opacity:1" fill="#ca8a40" d="M 259.5,319.5 C 259.639,317.663 260.306,317.33 261.5,318.5C 261.043,319.298 260.376,319.631 259.5,319.5 Z"/></g>
<g><path style="opacity:1" fill="#c98a40" d="M 239.5,319.5 C 241.975,319.747 241.975,320.413 239.5,321.5C 238.537,321.03 238.537,320.363 239.5,319.5 Z"/></g>
<g><path style="opacity:1" fill="#c8893f" d="M 187.5,320.5 C 193.951,322.914 193.951,323.58 187.5,322.5C 187.5,321.833 187.5,321.167 187.5,320.5 Z"/></g>
<g><path style="opacity:1" fill="#ca8a40" d="M 212.5,320.5 C 213.756,320.461 214.756,320.961 215.5,322C 214.167,322.667 212.833,322.667 211.5,322C 212.056,321.617 212.389,321.117 212.5,320.5 Z"/></g>
<g><path style="opacity:1" fill="#c8893f" d="M 221.5,321.5 C 221.157,323.225 220.157,323.725 218.5,323C 219.244,321.961 220.244,321.461 221.5,321.5 Z"/></g>
<g><path style="opacity:1" fill="#c8893f" d="M 253.5,321.5 C 257.703,321.076 261.703,321.576 265.5,323C 263.989,324.615 262.656,324.615 261.5,323C 259.5,322.333 257.5,322.333 255.5,323C 256.167,323.333 256.833,323.667 257.5,324C 252.167,324.667 252.167,325.333 257.5,326C 255.776,326.448 255.109,327.282 255.5,328.5C 253.453,326.985 251.119,326.151 248.5,326C 250.221,324.473 252.221,323.473 254.5,323C 253.944,322.617 253.611,322.117 253.5,321.5 Z"/></g>
<g><path style="opacity:1" fill="#c8893f" d="M 269.5,321.5 C 274.539,321.451 274.705,322.118 270,323.5C 269.536,322.906 269.369,322.239 269.5,321.5 Z"/></g>
<g><path style="opacity:1" fill="#c8893f" d="M 196.5,322.5 C 197.043,322.56 197.376,322.893 197.5,323.5C 196.635,324.583 195.635,324.749 194.5,324C 195.416,323.722 196.082,323.222 196.5,322.5 Z"/></g>
<g><path style="opacity:1" fill="#c8893f" d="M 200.5,322.5 C 201.766,323.09 203.099,323.59 204.5,324C 202.691,326.409 200.358,327.409 197.5,327C 198.623,325.956 199.956,325.29 201.5,325C 200.748,324.329 200.414,323.496 200.5,322.5 Z"/></g>
<g><path style="opacity:1" fill="#c98a40" d="M 210.5,323.5 C 212.337,323.639 212.67,324.306 211.5,325.5C 210.702,325.043 210.369,324.376 210.5,323.5 Z"/></g>
<g><path style="opacity:1" fill="#c8893f" d="M 229.5,325.5 C 230.386,324.224 231.386,324.224 232.5,325.5C 231.575,326.562 230.575,326.562 229.5,325.5 Z"/></g>
<g><path style="opacity:1" fill="#c8893f" d="M 209.5,326.5 C 210.368,328.892 209.701,329.059 207.5,327C 208.094,326.536 208.761,326.369 209.5,326.5 Z"/></g>
<g><path style="opacity:1" fill="#c8893f" d="M 212.5,327.5 C 216.467,329.127 216.467,330.794 212.5,332.5C 213.712,330.799 213.712,329.133 212.5,327.5 Z"/></g>
<g><path style="opacity:1" fill="#c8893f" d="M 238.5,328.5 C 237.151,329.797 235.818,329.63 234.5,328C 235.819,327.805 237.153,327.972 238.5,328.5 Z"/></g>
<g><path style="opacity:1" fill="#c8893f" d="M 225.5,328.5 C 227.606,328.762 228.773,329.762 229,331.5C 226.526,330.535 224.026,330.368 221.5,331C 222.858,330.066 224.192,329.232 225.5,328.5 Z"/></g>
<g><path style="opacity:1" fill="#c8893f" d="M 248.5,329.5 C 250.857,329.337 253.19,329.503 255.5,330C 253.444,330.311 251.444,330.811 249.5,331.5C 248.702,331.043 248.369,330.376 248.5,329.5 Z"/></g>
<g><path style="opacity:1" fill="#c8893f" d="M 230.5,331.5 C 232.233,332.008 232.566,332.841 231.5,334C 229.926,334.699 228.593,334.365 227.5,333C 228.737,332.768 229.737,332.268 230.5,331.5 Z"/></g>
</svg>
