<?xml version="1.0" encoding="UTF-8"?>
<!DOCTYPE svg PUBLIC "-//W3C//DTD SVG 1.1//EN" "http://www.w3.org/Graphics/SVG/1.1/DTD/svg11.dtd">
<svg xmlns="http://www.w3.org/2000/svg" version="1.1" width="500px" height="500px" style="shape-rendering:geometricPrecision; text-rendering:geometricPrecision; image-rendering:optimizeQuality; fill-rule:evenodd; clip-rule:evenodd" xmlns:xlink="http://www.w3.org/1999/xlink">
<g><path style="opacity:1" fill="#c8893f" d="M 252.5,128.5 C 253.552,130.655 252.886,130.988 250.5,129.5C 247.833,130.833 247.833,132.167 250.5,133.5C 256.547,131.53 262.547,131.363 268.5,133C 267.167,134.333 267.167,135.667 268.5,137C 264.636,138.55 264.636,140.05 268.5,141.5C 267.833,142.167 267.167,142.833 266.5,143.5C 268.942,145.044 270.942,147.044 272.5,149.5C 273.521,148.099 274.521,146.765 275.5,145.5C 275.38,148.205 276.38,148.872 278.5,147.5C 279.624,148.914 280.624,150.414 281.5,152C 280.552,152.483 279.552,152.649 278.5,152.5C 279.949,154.164 281.949,154.998 284.5,155C 283.692,155.308 283.025,155.808 282.5,156.5C 284.833,158.341 285.166,160.508 283.5,163C 283.78,164.395 284.447,165.562 285.5,166.5C 285.998,165.397 286.331,164.397 286.5,163.5C 287.631,165.074 287.798,166.741 287,168.5C 285.887,167.289 284.72,167.289 283.5,168.5C 282.167,169.5 282.167,170.5 283.5,171.5C 284.833,168.833 286.167,168.833 287.5,171.5C 288.219,169.483 289.386,167.817 291,166.5C 292.059,166.63 292.892,167.13 293.5,168C 292.244,168.417 291.577,169.25 291.5,170.5C 293.57,170.583 293.903,171.583 292.5,173.5C 292.818,174.647 293.484,175.481 294.5,176C 292.308,177.359 290.641,179.192 289.5,181.5C 289.833,181.833 290.167,182.167 290.5,182.5C 293.475,179.701 294.475,180.034 293.5,183.5C 294.583,183.461 295.583,183.127 296.5,182.5C 296.5,183.833 296.5,185.167 296.5,186.5C 298.198,185.319 299.865,185.319 301.5,186.5C 300.603,186.669 299.603,187.002 298.5,187.5C 298.844,190.036 299.844,192.203 301.5,194C 300.241,194.923 298.908,195.757 297.5,196.5C 298.328,197.415 299.328,198.081 300.5,198.5C 306.627,197.403 306.96,198.403 301.5,201.5C 302.833,202.5 302.833,203.5 301.5,204.5C 302.325,205.386 303.325,205.719 304.5,205.5C 303.262,211.433 304.095,211.766 307,206.5C 307.5,207.667 308.333,208.5 309.5,209C 308.167,210.333 308.167,211.667 309.5,213C 307.801,213.393 306.301,212.893 305,211.5C 303.233,213.164 303.733,214.331 306.5,215C 305.614,216.902 305.947,218.735 307.5,220.5C 309.481,218.327 311.814,217.16 314.5,217C 313.809,218.067 313.309,219.234 313,220.5C 312.439,219.978 311.772,219.645 311,219.5C 309.669,220.996 308.169,222.329 306.5,223.5C 308.805,225.686 308.805,228.019 306.5,230.5C 306.833,230.833 307.167,231.167 307.5,231.5C 308.971,230.619 309.804,229.286 310,227.5C 310.654,226.304 311.154,226.304 311.5,227.5C 311.475,229.63 310.975,231.63 310,233.5C 308.506,232.253 307.006,232.253 305.5,233.5C 307.149,234.148 308.482,235.148 309.5,236.5C 309.145,237.522 308.478,238.189 307.5,238.5C 279.518,220.528 251.518,202.528 223.5,184.5C 222.333,225.496 222.167,266.496 223,307.5C 224.36,305.895 225.86,304.395 227.5,303C 254.729,285.591 282.063,268.425 309.5,251.5C 309.948,253.465 310.948,253.798 312.5,252.5C 312.137,251.817 311.804,251.15 311.5,250.5C 311.833,249.5 312.5,248.833 313.5,248.5C 314.833,249.833 316.167,251.167 317.5,252.5C 316.022,252.238 314.689,252.571 313.5,253.5C 312.737,254.719 311.737,255.719 310.5,256.5C 312.592,258.989 313.258,261.656 312.5,264.5C 309.585,265.704 307.419,267.704 306,270.5C 305.107,269.289 304.274,269.289 303.5,270.5C 305.118,272.836 306.952,272.836 309,270.5C 310.399,271.227 311.899,271.727 313.5,272C 312.1,273.438 310.433,274.271 308.5,274.5C 308.61,277.059 307.944,279.392 306.5,281.5C 305.391,280.41 304.391,280.41 303.5,281.5C 304.025,282.192 304.692,282.692 305.5,283C 304.594,284.699 304.261,286.533 304.5,288.5C 305.822,288.67 306.989,288.337 308,287.5C 308.5,288.667 309.333,289.5 310.5,290C 308.5,291.622 306.667,293.455 305,295.5C 303.506,294.253 302.006,294.253 300.5,295.5C 301.948,296.354 303.281,297.354 304.5,298.5C 305.086,298.291 305.586,297.957 306,297.5C 307.098,298.967 308.598,299.801 310.5,300C 308.19,300.497 305.857,300.663 303.5,300.5C 303.762,301.978 303.429,303.311 302.5,304.5C 302.331,303.603 301.998,302.603 301.5,301.5C 299.609,303.016 297.609,304.35 295.5,305.5C 296.274,306.711 297.107,306.711 298,305.5C 299,308.167 300,308.167 301,305.5C 303.582,307.176 303.415,309.176 300.5,311.5C 301.04,312.748 301.707,313.915 302.5,315C 300.884,314.628 299.217,313.961 297.5,313C 298.464,310.731 297.798,308.898 295.5,307.5C 296.29,309.616 296.29,311.949 295.5,314.5C 296.995,314.415 297.995,315.081 298.5,316.5C 296.833,317.167 295.167,317.833 293.5,318.5C 294.5,319.167 295.5,319.833 296.5,320.5C 294.5,321.167 292.5,321.833 290.5,322.5C 288.88,324.739 289.213,326.573 291.5,328C 291.043,328.414 290.709,328.914 290.5,329.5C 291.729,330.281 293.062,330.781 294.5,331C 293.376,331.249 292.376,331.749 291.5,332.5C 292.428,333.768 292.595,335.101 292,336.5C 291.228,335.151 290.061,334.318 288.5,334C 289.725,331.371 289.392,328.871 287.5,326.5C 286.319,328.135 286.319,329.802 287.5,331.5C 286.603,331.669 285.603,332.002 284.5,332.5C 286.531,334.249 286.865,336.249 285.5,338.5C 285.957,339.298 286.624,339.631 287.5,339.5C 285.313,341.682 283.646,341.516 282.5,339C 283.293,337.915 283.96,336.748 284.5,335.5C 283.833,334.167 283.167,334.167 282.5,335.5C 281.5,337.5 280.5,339.5 279.5,341.5C 281.194,343.194 282.86,344.86 284.5,346.5C 283.311,347.429 281.978,347.762 280.5,347.5C 280.773,345.042 279.773,343.375 277.5,342.5C 276.396,343.631 276.729,344.465 278.5,345C 277.91,346.509 277.244,348.009 276.5,349.5C 275.735,348.388 274.735,347.721 273.5,347.5C 273.631,348.239 273.464,348.906 273,349.5C 272.107,348.289 271.274,348.289 270.5,349.5C 272.833,350.5 274.5,352.167 275.5,354.5C 275.167,354.833 274.833,355.167 274.5,355.5C 272.081,353.351 269.414,352.685 266.5,353.5C 265.571,354.689 265.238,356.022 265.5,357.5C 264.624,357.369 263.957,357.702 263.5,358.5C 264.85,360.386 266.517,361.886 268.5,363C 267.809,364.067 267.309,365.234 267,366.5C 264.043,364.923 261.376,365.256 259,367.5C 258.692,366.692 258.192,366.025 257.5,365.5C 255.738,366.688 254.738,368.355 254.5,370.5C 252.716,371.574 251.549,373.24 251,375.5C 250.487,374.473 249.987,373.473 249.5,372.5C 247.554,373.035 246.554,374.368 246.5,376.5C 246.167,376.5 245.833,376.5 245.5,376.5C 245.38,375.414 244.713,374.747 243.5,374.5C 242.287,374.747 241.62,375.414 241.5,376.5C 202.165,376.667 162.832,376.5 123.5,376C 98.0873,371.254 81.9206,356.421 75,331.5C 74.3333,278.833 74.3333,226.167 75,173.5C 82.1679,147.335 99.1679,132.002 126,127.5C 168.094,128.497 210.261,128.83 252.5,128.5 Z"/></g>
<g><path style="opacity:1" fill="#ca8a41" d="M 252.5,128.5 C 253.167,128.5 253.833,128.5 254.5,128.5C 255.74,130.985 256.74,130.985 257.5,128.5C 304.193,128.041 350.86,128.541 397.5,130C 417.757,136.591 430.924,150.091 437,170.5C 437.667,224.833 437.667,279.167 437,333.5C 429.971,357.53 414.138,371.697 389.5,376C 346.168,376.5 302.835,376.667 259.5,376.5C 258.452,374.067 257.786,374.067 257.5,376.5C 253.833,376.5 250.167,376.5 246.5,376.5C 246.554,374.368 247.554,373.035 249.5,372.5C 249.987,373.473 250.487,374.473 251,375.5C 251.549,373.24 252.716,371.574 254.5,370.5C 254.738,368.355 255.738,366.688 257.5,365.5C 258.192,366.025 258.692,366.692 259,367.5C 261.376,365.256 264.043,364.923 267,366.5C 267.309,365.234 267.809,364.067 268.5,363C 266.517,361.886 264.85,360.386 263.5,358.5C 263.957,357.702 264.624,357.369 265.5,357.5C 265.238,356.022 265.571,354.689 266.5,353.5C 269.414,352.685 272.081,353.351 274.5,355.5C 274.833,355.167 275.167,354.833 275.5,354.5C 274.5,352.167 272.833,350.5 270.5,349.5C 271.274,348.289 272.107,348.289 273,349.5C 273.464,348.906 273.631,348.239 273.5,347.5C 274.735,347.721 275.735,348.388 276.5,349.5C 277.244,348.009 277.91,346.509 278.5,345C 276.729,344.465 276.396,343.631 277.5,342.5C 279.773,343.375 280.773,345.042 280.5,347.5C 281.978,347.762 283.311,347.429 284.5,346.5C 282.86,344.86 281.194,343.194 279.5,341.5C 280.5,339.5 281.5,337.5 282.5,335.5C 283.167,334.167 283.833,334.167 284.5,335.5C 283.96,336.748 283.293,337.915 282.5,339C 283.646,341.516 285.313,341.682 287.5,339.5C 286.624,339.631 285.957,339.298 285.5,338.5C 286.865,336.249 286.531,334.249 284.5,332.5C 285.603,332.002 286.603,331.669 287.5,331.5C 286.319,329.802 286.319,328.135 287.5,326.5C 289.392,328.871 289.725,331.371 288.5,334C 290.061,334.318 291.228,335.151 292,336.5C 292.595,335.101 292.428,333.768 291.5,332.5C 292.376,331.749 293.376,331.249 294.5,331C 293.062,330.781 291.729,330.281 290.5,329.5C 290.709,328.914 291.043,328.414 291.5,328C 289.213,326.573 288.88,324.739 290.5,322.5C 292.5,321.833 294.5,321.167 296.5,320.5C 295.5,319.833 294.5,319.167 293.5,318.5C 295.167,317.833 296.833,317.167 298.5,316.5C 297.995,315.081 296.995,314.415 295.5,314.5C 296.29,311.949 296.29,309.616 295.5,307.5C 297.798,308.898 298.464,310.731 297.5,313C 299.217,313.961 300.884,314.628 302.5,315C 301.707,313.915 301.04,312.748 300.5,311.5C 303.415,309.176 303.582,307.176 301,305.5C 300,308.167 299,308.167 298,305.5C 297.107,306.711 296.274,306.711 295.5,305.5C 297.609,304.35 299.609,303.016 301.5,301.5C 301.998,302.603 302.331,303.603 302.5,304.5C 303.429,303.311 303.762,301.978 303.5,300.5C 305.857,300.663 308.19,300.497 310.5,300C 308.598,299.801 307.098,298.967 306,297.5C 305.586,297.957 305.086,298.291 304.5,298.5C 303.281,297.354 301.948,296.354 300.5,295.5C 302.006,294.253 303.506,294.253 305,295.5C 306.667,293.455 308.5,291.622 310.5,290C 309.333,289.5 308.5,288.667 308,287.5C 306.989,288.337 305.822,288.67 304.5,288.5C 304.261,286.533 304.594,284.699 305.5,283C 304.692,282.692 304.025,282.192 303.5,281.5C 304.391,280.41 305.391,280.41 306.5,281.5C 307.944,279.392 308.61,277.059 308.5,274.5C 310.433,274.271 312.1,273.438 313.5,272C 311.899,271.727 310.399,271.227 309,270.5C 306.952,272.836 305.118,272.836 303.5,270.5C 304.274,269.289 305.107,269.289 306,270.5C 307.419,267.704 309.585,265.704 312.5,264.5C 313.258,261.656 312.592,258.989 310.5,256.5C 311.737,255.719 312.737,254.719 313.5,253.5C 314.689,252.571 316.022,252.238 317.5,252.5C 316.167,251.167 314.833,249.833 313.5,248.5C 315.394,247.952 317.06,246.952 318.5,245.5C 315.779,243.75 313.112,242.083 310.5,240.5C 312.589,240.143 314.589,239.477 316.5,238.5C 315.609,237.41 314.609,237.41 313.5,238.5C 312.749,237.624 312.249,236.624 312,235.5C 311.59,236.901 311.09,238.234 310.5,239.5C 309.209,239.737 308.209,239.404 307.5,238.5C 308.478,238.189 309.145,237.522 309.5,236.5C 308.482,235.148 307.149,234.148 305.5,233.5C 307.006,232.253 308.506,232.253 310,233.5C 310.975,231.63 311.475,229.63 311.5,227.5C 311.154,226.304 310.654,226.304 310,227.5C 309.804,229.286 308.971,230.619 307.5,231.5C 307.167,231.167 306.833,230.833 306.5,230.5C 308.805,228.019 308.805,225.686 306.5,223.5C 308.169,222.329 309.669,220.996 311,219.5C 311.772,219.645 312.439,219.978 313,220.5C 313.309,219.234 313.809,218.067 314.5,217C 311.814,217.16 309.481,218.327 307.5,220.5C 305.947,218.735 305.614,216.902 306.5,215C 303.733,214.331 303.233,213.164 305,211.5C 306.301,212.893 307.801,213.393 309.5,213C 308.167,211.667 308.167,210.333 309.5,209C 308.333,208.5 307.5,207.667 307,206.5C 304.095,211.766 303.262,211.433 304.5,205.5C 303.325,205.719 302.325,205.386 301.5,204.5C 302.833,203.5 302.833,202.5 301.5,201.5C 306.96,198.403 306.627,197.403 300.5,198.5C 299.328,198.081 298.328,197.415 297.5,196.5C 298.908,195.757 300.241,194.923 301.5,194C 299.844,192.203 298.844,190.036 298.5,187.5C 299.603,187.002 300.603,186.669 301.5,186.5C 299.865,185.319 298.198,185.319 296.5,186.5C 296.5,185.167 296.5,183.833 296.5,182.5C 295.583,183.127 294.583,183.461 293.5,183.5C 294.475,180.034 293.475,179.701 290.5,182.5C 290.167,182.167 289.833,181.833 289.5,181.5C 290.641,179.192 292.308,177.359 294.5,176C 293.484,175.481 292.818,174.647 292.5,173.5C 293.903,171.583 293.57,170.583 291.5,170.5C 291.577,169.25 292.244,168.417 293.5,168C 292.892,167.13 292.059,166.63 291,166.5C 289.386,167.817 288.219,169.483 287.5,171.5C 286.167,168.833 284.833,168.833 283.5,171.5C 282.167,170.5 282.167,169.5 283.5,168.5C 284.72,167.289 285.887,167.289 287,168.5C 287.798,166.741 287.631,165.074 286.5,163.5C 286.331,164.397 285.998,165.397 285.5,166.5C 284.447,165.562 283.78,164.395 283.5,163C 285.166,160.508 284.833,158.341 282.5,156.5C 283.025,155.808 283.692,155.308 284.5,155C 281.949,154.998 279.949,154.164 278.5,152.5C 279.552,152.649 280.552,152.483 281.5,152C 280.624,150.414 279.624,148.914 278.5,147.5C 276.38,148.872 275.38,148.205 275.5,145.5C 274.521,146.765 273.521,148.099 272.5,149.5C 270.942,147.044 268.942,145.044 266.5,143.5C 267.167,142.833 267.833,142.167 268.5,141.5C 264.636,140.05 264.636,138.55 268.5,137C 267.167,135.667 267.167,134.333 268.5,133C 262.547,131.363 256.547,131.53 250.5,133.5C 247.833,132.167 247.833,130.833 250.5,129.5C 252.886,130.988 253.552,130.655 252.5,128.5 Z"/></g>
<g><path style="opacity:1" fill="#c8893f" d="M 254.5,128.5 C 255.5,128.5 256.5,128.5 257.5,128.5C 256.74,130.985 255.74,130.985 254.5,128.5 Z"/></g>
<g><path style="opacity:1" fill="#c98a40" d="M 253.5,133.5 C 255.337,133.639 255.67,134.306 254.5,135.5C 253.702,135.043 253.369,134.376 253.5,133.5 Z"/></g>
<g><path style="opacity:1" fill="#c98a40" d="M 263.5,141.5 C 262.849,142.091 262.182,142.757 261.5,143.5C 261.167,143.167 260.833,142.833 260.5,142.5C 261.833,141.5 261.833,140.5 260.5,139.5C 261.025,138.808 261.692,138.308 262.5,138C 261.376,137.751 260.376,137.251 259.5,136.5C 263.846,135.488 265.18,137.154 263.5,141.5 Z"/></g>
<g><path style="opacity:1" fill="#c8893f" d="M 274.5,136.5 C 275.386,135.224 276.386,135.224 277.5,136.5C 276.575,137.562 275.575,137.562 274.5,136.5 Z"/></g>
<g><path style="opacity:1" fill="#c8893f" d="M 273.5,140.5 C 274.043,140.56 274.376,140.893 274.5,141.5C 273.295,143.138 271.962,143.471 270.5,142.5C 271.602,141.824 272.602,141.158 273.5,140.5 Z"/></g>
<g><path style="opacity:1" fill="#c98a40" d="M 263.5,141.5 C 265.337,141.639 265.67,142.306 264.5,143.5C 263.702,143.043 263.369,142.376 263.5,141.5 Z"/></g>
<g><path style="opacity:1" fill="#c8893f" d="M 275.5,145.5 C 275.511,142.999 276.178,142.832 277.5,145C 276.906,145.464 276.239,145.631 275.5,145.5 Z"/></g>
<g><path style="opacity:1" fill="#c98a40" d="M 267.5,149.5 C 269.337,149.639 269.67,150.306 268.5,151.5C 267.702,151.043 267.369,150.376 267.5,149.5 Z"/></g>
<g><path style="opacity:1" fill="#c98940" d="M 278.5,152.5 C 277.691,153.469 276.691,154.302 275.5,155C 276.711,155.893 276.711,156.726 275.5,157.5C 272.403,156.229 272.069,154.729 274.5,153C 273.289,152.107 273.289,151.274 274.5,150.5C 275.736,149.754 277.07,149.421 278.5,149.5C 278.5,150.5 278.5,151.5 278.5,152.5 Z"/></g>
<g><path style="opacity:1" fill="#c98a40" d="M 270.5,150.5 C 272.337,150.639 272.67,151.306 271.5,152.5C 270.702,152.043 270.369,151.376 270.5,150.5 Z"/></g>
<g><path style="opacity:1" fill="#c8893f" d="M 286.5,154.5 C 288.134,155.207 289.468,156.373 290.5,158C 289.167,159 289.167,160 290.5,161C 290.167,161.167 289.833,161.333 289.5,161.5C 289.085,158.921 287.752,157.087 285.5,156C 286.056,155.617 286.389,155.117 286.5,154.5 Z"/></g>
<g><path style="opacity:1" fill="#c98a40" d="M 276.5,158.5 C 279.012,159.216 279.012,160.216 276.5,161.5C 275.438,160.575 275.438,159.575 276.5,158.5 Z"/></g>
<g><path style="opacity:1" fill="#c98a40" d="M 280.5,159.5 C 282.337,159.639 282.67,160.306 281.5,161.5C 280.702,161.043 280.369,160.376 280.5,159.5 Z"/></g>
<g><path style="opacity:1" fill="#c98a40" d="M 279.5,165.5 C 281.337,165.639 281.67,166.306 280.5,167.5C 279.702,167.043 279.369,166.376 279.5,165.5 Z"/></g>
<g><path style="opacity:1" fill="#c98a40" d="M 291.5,170.5 C 291.5,171.833 290.833,172.5 289.5,172.5C 289.5,171.167 290.167,170.5 291.5,170.5 Z"/></g>
<g><path style="opacity:1" fill="#c8893f" d="M 294.5,171.5 C 299.421,171.135 299.755,172.135 295.5,174.5C 294.614,173.675 294.281,172.675 294.5,171.5 Z"/></g>
<g><path style="opacity:1" fill="#c98a40" d="M 289.5,172.5 C 289.361,174.337 288.694,174.67 287.5,173.5C 287.957,172.702 288.624,172.369 289.5,172.5 Z"/></g>
<g><path style="opacity:1" fill="#c8893f" d="M 299.5,178.5 C 298.384,175.172 299.717,173.672 303.5,174C 301.714,175.196 300.381,176.696 299.5,178.5 Z"/></g>
<g><path style="opacity:1" fill="#c8893f" d="M 299.5,178.5 C 298.365,180.088 297.031,180.421 295.5,179.5C 296.689,178.571 298.022,178.238 299.5,178.5 Z"/></g>
<g><path style="opacity:1" fill="#c8893f" d="M 301.5,179.5 C 302.773,180.077 302.773,180.743 301.5,181.5C 300.537,181.03 300.537,180.363 301.5,179.5 Z"/></g>
<g><path style="opacity:1" fill="#c98a40" d="M 293.5,183.5 C 294.649,188.023 293.983,188.357 291.5,184.5C 291.957,183.702 292.624,183.369 293.5,183.5 Z"/></g>
<g><path style="opacity:1" fill="#c98a40" d="M 296.5,189.5 C 297.376,189.369 298.043,189.702 298.5,190.5C 298.167,191.833 297.833,193.167 297.5,194.5C 295.246,193.286 294.913,191.619 296.5,189.5 Z"/></g>
<g><path style="opacity:1" fill="#c8893f" d="M 301.5,190.5 C 302.289,190.783 302.956,191.283 303.5,192C 302.184,192.528 301.517,192.028 301.5,190.5 Z"/></g>
<g><path style="opacity:1" fill="#c8893f" d="M 314.5,192.5 C 315.773,193.077 315.773,193.743 314.5,194.5C 313.537,194.03 313.537,193.363 314.5,192.5 Z"/></g>
<g><path style="opacity:1" fill="#c8893f" d="M 306.5,202.5 C 309.001,202.511 309.168,203.178 307,204.5C 306.536,203.906 306.369,203.239 306.5,202.5 Z"/></g>
<g><path style="opacity:1" fill="#c8893f" d="M 311.5,209.5 C 312.713,210.497 312.546,211.497 311,212.5C 310.53,211.423 310.697,210.423 311.5,209.5 Z"/></g>
<g><path style="opacity:1" fill="#c8893f" d="M 319.5,218.5 C 322.001,218.511 322.168,219.178 320,220.5C 319.536,219.906 319.369,219.239 319.5,218.5 Z"/></g>
<g><path style="opacity:1" fill="#c8893f" d="M 315.5,223.5 C 316.043,223.56 316.376,223.893 316.5,224.5C 315.277,225.614 313.944,225.781 312.5,225C 313.737,224.768 314.737,224.268 315.5,223.5 Z"/></g>
<g><path style="opacity:1" fill="#c98a40" d="M 304.5,226.5 C 306.337,226.639 306.67,227.306 305.5,228.5C 304.702,228.043 304.369,227.376 304.5,226.5 Z"/></g>
<g><path style="opacity:1" fill="#c8893f" d="M 314.5,227.5 C 315.289,227.783 315.956,228.283 316.5,229C 315.184,229.528 314.517,229.028 314.5,227.5 Z"/></g>
<g><path style="opacity:1" fill="#c8893f" d="M 312.5,231.5 C 317.021,231.326 317.355,231.993 313.5,233.5C 312.702,233.043 312.369,232.376 312.5,231.5 Z"/></g>
<g><path style="opacity:1" fill="#c8893f" d="M 310.5,240.5 C 310.5,240.167 310.5,239.833 310.5,239.5C 311.09,238.234 311.59,236.901 312,235.5C 312.249,236.624 312.749,237.624 313.5,238.5C 314.609,237.41 315.609,237.41 316.5,238.5C 314.589,239.477 312.589,240.143 310.5,240.5 Z"/></g>
<g><path style="opacity:1" fill="#c8893f" d="M 323.5,239.5 C 324.586,239.62 325.253,240.287 325.5,241.5C 324.965,243.916 323.965,244.083 322.5,242C 323.252,241.329 323.586,240.496 323.5,239.5 Z"/></g>
<g><path style="opacity:1" fill="#c8893f" d="M 317.5,240.5 C 318.773,241.077 318.773,241.743 317.5,242.5C 316.537,242.03 316.537,241.363 317.5,240.5 Z"/></g>
<g><path style="opacity:1" fill="#c8893f" d="M 320.5,252.5 C 320.215,250.712 320.548,249.045 321.5,247.5C 321.833,247.667 322.167,247.833 322.5,248C 321.901,249.622 321.234,251.122 320.5,252.5 Z"/></g>
<g><path style="opacity:1" fill="#ca8a40" d="M 311.5,250.5 C 311.804,251.15 312.137,251.817 312.5,252.5C 310.948,253.798 309.948,253.465 309.5,251.5C 309.842,250.662 310.508,250.328 311.5,250.5 Z"/></g>
<g><path style="opacity:1" fill="#c8893f" d="M 317.5,252.5 C 318.5,252.5 319.5,252.5 320.5,252.5C 319.793,254.134 318.627,255.468 317,256.5C 316.805,255.181 316.972,253.847 317.5,252.5 Z"/></g>
<g><path style="opacity:1" fill="#c98a40" d="M 304.5,258.5 C 306.337,258.639 306.67,259.306 305.5,260.5C 304.702,260.043 304.369,259.376 304.5,258.5 Z"/></g>
<g><path style="opacity:1" fill="#c98a40" d="M 309.5,259.5 C 311.337,259.639 311.67,260.306 310.5,261.5C 309.702,261.043 309.369,260.376 309.5,259.5 Z"/></g>
<g><path style="opacity:1" fill="#c98a40" d="M 304.5,262.5 C 307.097,262.533 308.097,263.533 307.5,265.5C 305.787,265.121 304.787,264.121 304.5,262.5 Z"/></g>
<g><path style="opacity:1" fill="#c8893f" d="M 316.5,263.5 C 318.973,263.947 319.14,264.947 317,266.5C 316.517,265.552 316.351,264.552 316.5,263.5 Z"/></g>
<g><path style="opacity:1" fill="#c8893f" d="M 311.5,267.5 C 313.01,268.728 314.51,268.728 316,267.5C 317.267,268.91 317.267,270.576 316,272.5C 314.764,270.462 312.931,269.295 310.5,269C 311.056,268.617 311.389,268.117 311.5,267.5 Z"/></g>
<g><path style="opacity:1" fill="#c8893f" d="M 317.5,274.5 C 317.56,273.957 317.893,273.624 318.5,273.5C 319.583,274.365 319.749,275.365 319,276.5C 318.722,275.584 318.222,274.918 317.5,274.5 Z"/></g>
<g><path style="opacity:1" fill="#c98a40" d="M 304.5,274.5 C 306.337,274.639 306.67,275.306 305.5,276.5C 304.702,276.043 304.369,275.376 304.5,274.5 Z"/></g>
<g><path style="opacity:1" fill="#c8893f" d="M 312.5,279.5 C 315.001,279.511 315.168,280.178 313,281.5C 312.536,280.906 312.369,280.239 312.5,279.5 Z"/></g>
<g><path style="opacity:1" fill="#c98a40" d="M 301.5,284.5 C 303.337,284.639 303.67,285.306 302.5,286.5C 301.702,286.043 301.369,285.376 301.5,284.5 Z"/></g>
<g><path style="opacity:1" fill="#c98a40" d="M 304.5,288.5 C 305.278,289.156 305.944,289.989 306.5,291C 306.167,291.5 305.833,292 305.5,292.5C 299.641,291.504 299.308,290.17 304.5,288.5 Z"/></g>
<g><path style="opacity:1" fill="#c8893f" d="M 310.5,291.5 C 311.675,291.281 312.675,291.614 313.5,292.5C 311.135,296.755 310.135,296.421 310.5,291.5 Z"/></g>
<g><path style="opacity:1" fill="#c8893f" d="M 315.5,292.5 C 316.077,291.227 316.743,291.227 317.5,292.5C 317.03,293.463 316.363,293.463 315.5,292.5 Z"/></g>
<g><path style="opacity:1" fill="#c98a40" d="M 297.5,294.5 C 299.337,294.639 299.67,295.306 298.5,296.5C 297.702,296.043 297.369,295.376 297.5,294.5 Z"/></g>
<g><path style="opacity:1" fill="#c98a40" d="M 300.5,297.5 C 302.337,297.639 302.67,298.306 301.5,299.5C 300.702,299.043 300.369,298.376 300.5,297.5 Z"/></g>
<g><path style="opacity:1" fill="#c98a40" d="M 297.5,300.5 C 299.337,300.639 299.67,301.306 298.5,302.5C 297.702,302.043 297.369,301.376 297.5,300.5 Z"/></g>
<g><path style="opacity:1" fill="#c8893f" d="M 311.5,312.5 C 312.776,313.386 312.776,314.386 311.5,315.5C 310.913,314.767 310.913,313.767 311.5,312.5 Z"/></g>
<g><path style="opacity:1" fill="#c98a40" d="M 295.5,314.5 C 295.052,316.465 294.052,316.798 292.5,315.5C 293.325,314.614 294.325,314.281 295.5,314.5 Z"/></g>
<g><path style="opacity:1" fill="#c98a40" d="M 289.5,315.5 C 290.376,315.369 291.043,315.702 291.5,316.5C 286.352,325.687 285.686,325.354 289.5,315.5 Z"/></g>
<g><path style="opacity:1" fill="#c8893f" d="M 297.5,323.5 C 298.376,323.369 299.043,323.702 299.5,324.5C 298.419,328.149 296.419,328.983 293.5,327C 295.324,326.34 296.657,325.173 297.5,323.5 Z"/></g>
<g><path style="opacity:1" fill="#c98a40" d="M 280.5,330.5 C 282.337,330.639 282.67,331.306 281.5,332.5C 280.702,332.043 280.369,331.376 280.5,330.5 Z"/></g>
<g><path style="opacity:1" fill="#c98a40" d="M 275.5,337.5 C 277.337,337.639 277.67,338.306 276.5,339.5C 275.702,339.043 275.369,338.376 275.5,337.5 Z"/></g>
<g><path style="opacity:1" fill="#c8893f" d="M 287.5,339.5 C 288.14,337.668 289.14,337.335 290.5,338.5C 289.675,339.386 288.675,339.719 287.5,339.5 Z"/></g>
<g><path style="opacity:1" fill="#c98a40" d="M 273.5,345.5 C 273.639,343.663 274.306,343.33 275.5,344.5C 275.043,345.298 274.376,345.631 273.5,345.5 Z"/></g>
<g><path style="opacity:1" fill="#c98a40" d="M 273.5,345.5 C 273.5,346.167 273.5,346.833 273.5,347.5C 268.167,346.833 268.167,346.167 273.5,345.5 Z"/></g>
<g><path style="opacity:1" fill="#c98a40" d="M 266.5,348.5 C 267.995,348.415 268.995,349.081 269.5,350.5C 267.604,351.639 266.604,350.973 266.5,348.5 Z"/></g>
<g><path style="opacity:1" fill="#c8893f" d="M 268.5,357.5 C 268.517,355.972 269.184,355.472 270.5,356C 269.956,356.717 269.289,357.217 268.5,357.5 Z"/></g>
<g><path style="opacity:1" fill="#c8893f" d="M 265.5,357.5 C 266.5,357.5 267.5,357.5 268.5,357.5C 268.043,359.557 267.043,359.557 265.5,357.5 Z"/></g>
<g><path style="opacity:1" fill="#c8893f" d="M 271.5,358.5 C 272.568,357.566 273.901,357.232 275.5,357.5C 275.649,358.552 275.483,359.552 275,360.5C 273.887,359.695 272.721,359.028 271.5,358.5 Z"/></g>
<g><path style="opacity:1" fill="#c98a40" d="M 258.5,358.5 C 260.337,358.639 260.67,359.306 259.5,360.5C 258.702,360.043 258.369,359.376 258.5,358.5 Z"/></g>
<g><path style="opacity:1" fill="#c98a40" d="M 261.5,360.5 C 263.048,360.821 263.715,361.821 263.5,363.5C 259.627,363.666 258.96,362.666 261.5,360.5 Z"/></g>
<g><path style="opacity:1" fill="#c98a40" d="M 255.5,362.5 C 256.675,362.281 257.675,362.614 258.5,363.5C 256.948,364.798 255.948,364.465 255.5,362.5 Z"/></g>
<g><path style="opacity:1" fill="#c8893f" d="M 270.5,363.5 C 273.041,364.623 273.041,365.956 270.5,367.5C 270.094,366.443 270.094,365.109 270.5,363.5 Z"/></g>
<g><path style="opacity:1" fill="#c98a40" d="M 250.5,365.5 C 252.337,365.639 252.67,366.306 251.5,367.5C 250.702,367.043 250.369,366.376 250.5,365.5 Z"/></g>
<g><path style="opacity:1" fill="#c8893f" d="M 261.5,367.5 C 262.978,367.238 264.311,367.571 265.5,368.5C 264.34,368.437 263.006,368.77 261.5,369.5C 260.537,369.03 260.537,368.363 261.5,367.5 Z"/></g>
<g><path style="opacity:1" fill="#c98a40" d="M 243.5,369.5 C 244.376,369.369 245.043,369.702 245.5,370.5C 244.295,372.138 242.962,372.471 241.5,371.5C 242.243,370.818 242.909,370.151 243.5,369.5 Z"/></g>
<g><path style="opacity:1" fill="#c98a40" d="M 249.5,372.5 C 249.639,370.663 250.306,370.33 251.5,371.5C 251.043,372.298 250.376,372.631 249.5,372.5 Z"/></g>
<g><path style="opacity:1" fill="#c8893f" d="M 254.5,370.5 C 258.06,372.283 258.06,373.283 254.5,373.5C 254.5,372.5 254.5,371.5 254.5,370.5 Z"/></g>
<g><path style="opacity:1" fill="#ca8a40" d="M 245.5,376.5 C 244.167,376.5 242.833,376.5 241.5,376.5C 241.62,375.414 242.287,374.747 243.5,374.5C 244.713,374.747 245.38,375.414 245.5,376.5 Z"/></g>
<g><path style="opacity:1" fill="#c8893f" d="M 259.5,376.5 C 258.833,376.5 258.167,376.5 257.5,376.5C 257.786,374.067 258.452,374.067 259.5,376.5 Z"/></g>
</svg>
