<?xml version="1.0" encoding="UTF-8"?>
<!DOCTYPE svg PUBLIC "-//W3C//DTD SVG 1.1//EN" "http://www.w3.org/Graphics/SVG/1.1/DTD/svg11.dtd">
<svg xmlns="http://www.w3.org/2000/svg" version="1.1" width="500px" height="500px" style="shape-rendering:geometricPrecision; text-rendering:geometricPrecision; image-rendering:optimizeQuality; fill-rule:evenodd; clip-rule:evenodd" xmlns:xlink="http://www.w3.org/1999/xlink">
<g><path style="opacity:1" fill="#c98940" d="M 113.5,70.5 C 113.5,71.1667 113.5,71.8333 113.5,72.5C 115.45,72.923 117.45,73.2563 119.5,73.5C 120.562,72.5754 120.562,71.5754 119.5,70.5C 128.412,70.7102 136.412,73.3769 143.5,78.5C 143.5,79.8333 143.5,81.1667 143.5,82.5C 140.212,82.073 137.212,82.7397 134.5,84.5C 133.887,83.0202 133.554,81.6869 133.5,80.5C 131.547,81.0244 129.88,82.0244 128.5,83.5C 127.508,81.0193 128.508,79.5193 131.5,79C 130.552,78.5172 129.552,78.3505 128.5,78.5C 128.5,77.5 128.5,76.5 128.5,75.5C 127.022,75.238 125.689,75.5713 124.5,76.5C 125.246,77.7362 125.579,79.0695 125.5,80.5C 124.167,80.5 122.833,80.5 121.5,80.5C 122.038,78.8828 122.371,77.2161 122.5,75.5C 119.465,76.2909 116.465,77.2909 113.5,78.5C 112.558,78.3918 111.725,78.0585 111,77.5C 110.481,78.5156 109.647,79.1822 108.5,79.5C 107.167,78.8333 105.833,78.1667 104.5,77.5C 103.584,77.5427 102.917,77.8761 102.5,78.5C 101.711,78.7828 101.044,79.2828 100.5,80C 101.711,80.8928 101.711,81.7261 100.5,82.5C 99.1851,80.6841 97.6851,79.0175 96,77.5C 94.8869,78.7111 93.7202,78.7111 92.5,77.5C 91.5,77.8333 90.8333,78.5 90.5,79.5C 91.8333,79.8333 93.1667,80.1667 94.5,80.5C 93.8075,81.5178 93.1408,82.5178 92.5,83.5C 91.0597,82.6371 89.7264,82.6371 88.5,83.5C 87.8281,82.0508 87.1614,80.7175 86.5,79.5C 89.7085,76.768 93.3752,74.768 97.5,73.5C 98.9665,76.2583 99.6332,75.925 99.5,72.5C 104.049,71.2367 108.716,70.57 113.5,70.5 Z"/></g>
<g><path style="opacity:1" fill="#c98940" d="M 113.5,70.5 C 115.5,70.5 117.5,70.5 119.5,70.5C 120.562,71.5754 120.562,72.5754 119.5,73.5C 117.45,73.2563 115.45,72.923 113.5,72.5C 113.5,71.8333 113.5,71.1667 113.5,70.5 Z"/></g>
<g><path style="opacity:1" fill="#c8893f" d="M 97.5,73.5 C 97.8417,72.6618 98.5084,72.3284 99.5,72.5C 99.6332,75.925 98.9665,76.2583 97.5,73.5 Z"/></g>
<g><path style="opacity:1" fill="#c8893f" d="M 113.5,72.5 C 113.511,74.0174 114.177,75.1841 115.5,76C 113.294,76.7319 111.628,76.0652 110.5,74C 111.527,73.4867 112.527,72.9867 113.5,72.5 Z"/></g>
<g><path style="opacity:1" fill="#c8893f" d="M 101.5,73.5 C 102.675,73.281 103.675,73.6143 104.5,74.5C 102.948,75.7979 101.948,75.4646 101.5,73.5 Z"/></g>
<g><path style="opacity:1" fill="#c9893f" d="M 121.5,80.5 C 122.833,80.5 124.167,80.5 125.5,80.5C 125.579,79.0695 125.246,77.7362 124.5,76.5C 125.689,75.5713 127.022,75.238 128.5,75.5C 128.5,76.5 128.5,77.5 128.5,78.5C 129.552,78.3505 130.552,78.5172 131.5,79C 128.508,79.5193 127.508,81.0193 128.5,83.5C 129.88,82.0244 131.547,81.0244 133.5,80.5C 133.554,81.6869 133.887,83.0202 134.5,84.5C 137.212,82.7397 140.212,82.073 143.5,82.5C 143.5,81.1667 143.5,79.8333 143.5,78.5C 145.773,78.9568 147.106,80.2901 147.5,82.5C 147.821,84.0481 148.821,84.7148 150.5,84.5C 151.833,85.1667 152.833,86.1667 153.5,87.5C 152.243,88.6226 152.576,89.2893 154.5,89.5C 156.178,90.7471 157.511,92.4138 158.5,94.5C 167.905,123.524 158.238,143.024 129.5,153C 109.898,157.639 93.0648,153.139 79,139.5C 65.0086,121.558 65.0086,103.558 79,85.5C 81.5088,83.3521 84.0088,81.3521 86.5,79.5C 87.1614,80.7175 87.8281,82.0508 88.5,83.5C 89.7264,82.6371 91.0597,82.6371 92.5,83.5C 93.1408,82.5178 93.8075,81.5178 94.5,80.5C 93.1667,80.1667 91.8333,79.8333 90.5,79.5C 90.8333,78.5 91.5,77.8333 92.5,77.5C 93.7202,78.7111 94.8869,78.7111 96,77.5C 97.6851,79.0175 99.1851,80.6841 100.5,82.5C 101.711,81.7261 101.711,80.8928 100.5,80C 101.044,79.2828 101.711,78.7828 102.5,78.5C 102.917,77.8761 103.584,77.5427 104.5,77.5C 105.833,78.1667 107.167,78.8333 108.5,79.5C 109.647,79.1822 110.481,78.5156 111,77.5C 111.725,78.0585 112.558,78.3918 113.5,78.5C 116.465,77.2909 119.465,76.2909 122.5,75.5C 122.371,77.2161 122.038,78.8828 121.5,80.5 Z"/></g>
<g><path style="opacity:1" fill="#c8893f" d="M 135.5,76.5 C 136.776,77.3864 136.776,78.3864 135.5,79.5C 134.438,78.5754 134.438,77.5754 135.5,76.5 Z"/></g>
<g><path style="opacity:1" fill="#c98a3f" d="M 102.5,78.5 C 104.337,78.6395 104.67,79.3061 103.5,80.5C 102.702,80.0431 102.369,79.3764 102.5,78.5 Z"/></g>
<g><path style="opacity:1" fill="#ca8a40" d="M 95.5,80.5 C 97.337,80.6395 97.6704,81.3061 96.5,82.5C 95.7025,82.0431 95.3691,81.3764 95.5,80.5 Z"/></g>
<g><path style="opacity:1" fill="#ca8a40" d="M 111.5,80.5 C 114.108,82.3814 113.775,84.0481 110.5,85.5C 109.5,85.1667 108.833,84.5 108.5,83.5C 109.274,82.2888 110.107,82.2888 111,83.5C 111.483,82.552 111.649,81.552 111.5,80.5 Z"/></g>
<g><path style="opacity:1" fill="#ca8a40" d="M 114.5,80.5 C 116.337,80.6395 116.67,81.3061 115.5,82.5C 114.702,82.0431 114.369,81.3764 114.5,80.5 Z"/></g>
<g><path style="opacity:1" fill="#ca8a40" d="M 121.5,80.5 C 121.361,82.337 120.694,82.6704 119.5,81.5C 119.957,80.7025 120.624,80.3691 121.5,80.5 Z"/></g>
<g><path style="opacity:1" fill="#c98a3f" d="M 147.5,82.5 C 149.179,82.2852 150.179,82.9519 150.5,84.5C 148.821,84.7148 147.821,84.0481 147.5,82.5 Z"/></g>
<g><path style="opacity:1" fill="#ca8a40" d="M 92.5,83.5 C 93.3764,83.3691 94.0431,83.7025 94.5,84.5C 93.2954,86.1376 91.9621,86.4709 90.5,85.5C 91.2427,84.8182 91.9094,84.1515 92.5,83.5 Z"/></g>
<g><path style="opacity:1" fill="#ca8a40" d="M 98.5,83.5 C 100.337,83.6395 100.67,84.3061 99.5,85.5C 98.7025,85.0431 98.3691,84.3764 98.5,83.5 Z"/></g>
<g><path style="opacity:1" fill="#ca8a40" d="M 121.5,83.5 C 123.337,83.6395 123.67,84.3061 122.5,85.5C 121.702,85.0431 121.369,84.3764 121.5,83.5 Z"/></g>
<g><path style="opacity:1" fill="#ca8a40" d="M 137.5,83.5 C 139.337,83.6395 139.67,84.3061 138.5,85.5C 137.702,85.0431 137.369,84.3764 137.5,83.5 Z"/></g>
<g><path style="opacity:1" fill="#c98a40" d="M 144.5,84.5 C 146.337,84.6395 146.67,85.3061 145.5,86.5C 144.702,86.0431 144.369,85.3764 144.5,84.5 Z"/></g>
<g><path style="opacity:1" fill="#c98a3f" d="M 79.5,86.5 C 81.337,86.6395 81.6704,87.3061 80.5,88.5C 79.7025,88.0431 79.3691,87.3764 79.5,86.5 Z"/></g>
<g><path style="opacity:1" fill="#c98a3f" d="M 153.5,87.5 C 154.338,87.8417 154.672,88.5084 154.5,89.5C 152.576,89.2893 152.243,88.6226 153.5,87.5 Z"/></g>
<g><path style="opacity:1" fill="#ca8a41" d="M 194.5,369.5 C 195.376,369.369 196.043,369.702 196.5,370.5C 195.494,371.396 195.494,372.062 196.5,372.5C 197.5,372 198.5,371.5 199.5,371C 198.484,370.481 197.818,369.647 197.5,368.5C 198.39,367.045 198.39,365.711 197.5,364.5C 198.833,363.167 200.167,363.167 201.5,364.5C 201.291,365.086 200.957,365.586 200.5,366C 202.218,366.346 203.885,366.846 205.5,367.5C 206.888,366.409 207.388,365.076 207,363.5C 205.32,364.603 203.82,364.27 202.5,362.5C 201.466,360.562 202.132,359.228 204.5,358.5C 205.167,358.833 205.833,359.167 206.5,359.5C 202.626,361.002 202.959,361.669 207.5,361.5C 207.259,358.966 208.259,357.3 210.5,356.5C 210.987,357.473 211.487,358.473 212,359.5C 212.549,357.24 213.716,355.574 215.5,354.5C 215.738,352.355 216.738,350.688 218.5,349.5C 219.192,350.025 219.692,350.692 220,351.5C 222.376,349.256 225.043,348.923 228,350.5C 228.309,349.234 228.809,348.067 229.5,347C 227.517,345.886 225.85,344.386 224.5,342.5C 224.957,341.702 225.624,341.369 226.5,341.5C 226.227,339.042 227.227,337.375 229.5,336.5C 231.711,337.123 233.711,338.123 235.5,339.5C 235.833,339.167 236.167,338.833 236.5,338.5C 235.5,336.167 233.833,334.5 231.5,333.5C 232.274,332.289 233.107,332.289 234,333.5C 234.464,332.906 234.631,332.239 234.5,331.5C 235.735,331.721 236.735,332.388 237.5,333.5C 238.244,332.009 238.91,330.509 239.5,329C 237.729,328.465 237.396,327.631 238.5,326.5C 240.773,327.375 241.773,329.042 241.5,331.5C 242.978,331.762 244.311,331.429 245.5,330.5C 243.86,328.86 242.194,327.194 240.5,325.5C 241.5,323.5 242.5,321.5 243.5,319.5C 244.167,318.167 244.833,318.167 245.5,319.5C 243.535,321.519 243.369,323.519 245,325.5C 246.302,324.915 247.469,324.249 248.5,323.5C 246.228,323.089 245.895,321.922 247.5,320C 247.05,318.715 246.383,317.548 245.5,316.5C 246.274,315.289 247.107,315.289 248,316.5C 247.502,314.473 247.669,312.473 248.5,310.5C 250.392,312.871 250.725,315.371 249.5,318C 251.061,318.318 252.228,319.151 253,320.5C 253.595,319.101 253.428,317.768 252.5,316.5C 253.376,315.749 254.376,315.249 255.5,315C 254.062,314.781 252.729,314.281 251.5,313.5C 251.709,312.914 252.043,312.414 252.5,312C 250.213,310.573 249.88,308.739 251.5,306.5C 253.5,305.833 255.5,305.167 257.5,304.5C 256.5,303.833 255.5,303.167 254.5,302.5C 256.167,301.833 257.833,301.167 259.5,300.5C 258.995,299.081 257.995,298.415 256.5,298.5C 257.29,295.949 257.29,293.616 256.5,291.5C 258.798,292.898 259.464,294.731 258.5,297C 260.217,297.961 261.884,298.628 263.5,299C 261.195,296.193 261.528,293.526 264.5,291C 263.584,290.626 262.75,290.126 262,289.5C 261,292.167 260,292.167 259,289.5C 258.107,290.711 257.274,290.711 256.5,289.5C 258.609,288.35 260.609,287.016 262.5,285.5C 262.998,286.603 263.331,287.603 263.5,288.5C 264.429,287.311 264.762,285.978 264.5,284.5C 266.857,284.663 269.19,284.497 271.5,284C 269.598,283.801 268.098,282.967 267,281.5C 266.586,281.957 266.086,282.291 265.5,282.5C 264.281,281.354 262.948,280.354 261.5,279.5C 263.006,278.253 264.506,278.253 266,279.5C 267.667,277.455 269.5,275.622 271.5,274C 270.333,273.5 269.5,272.667 269,271.5C 267.989,272.337 266.822,272.67 265.5,272.5C 265.261,270.533 265.594,268.699 266.5,267C 265.692,266.692 265.025,266.192 264.5,265.5C 265.391,264.41 266.391,264.41 267.5,265.5C 268.944,263.392 269.61,261.059 269.5,258.5C 271.433,258.271 273.1,257.438 274.5,256C 271.608,254.19 268.942,254.357 266.5,256.5C 265.5,256.167 264.833,255.5 264.5,254.5C 265.274,253.289 266.107,253.289 267,254.5C 269.167,251.667 271.667,249.167 274.5,247C 273.953,244.633 272.953,242.467 271.5,240.5C 272.737,239.719 273.737,238.719 274.5,237.5C 275.689,236.571 277.022,236.238 278.5,236.5C 277.685,235.163 276.518,234.163 275,233.5C 275.56,230.612 274.393,228.279 271.5,226.5C 271.331,227.397 270.998,228.397 270.5,229.5C 266.861,226.656 266.861,223.656 270.5,220.5C 269.482,219.148 268.149,218.148 266.5,217.5C 268.006,216.253 269.506,216.253 271,217.5C 271.374,216.584 271.874,215.75 272.5,215C 271.788,213.575 271.621,212.075 272,210.5C 270.98,211.891 270.147,213.391 269.5,215C 268.668,215.688 268.002,215.521 267.5,214.5C 269.805,212.019 269.805,209.686 267.5,207.5C 269.169,206.329 270.669,204.996 272,203.5C 272.772,203.645 273.439,203.978 274,204.5C 274.309,203.234 274.809,202.067 275.5,201C 272.814,201.16 270.481,202.327 268.5,204.5C 266.947,202.735 266.614,200.902 267.5,199C 264.733,198.331 264.233,197.164 266,195.5C 267.301,196.893 268.801,197.393 270.5,197C 269.167,195.667 269.167,194.333 270.5,193C 269.333,192.5 268.5,191.667 268,190.5C 265.095,195.766 264.262,195.433 265.5,189.5C 264.325,189.719 263.325,189.386 262.5,188.5C 263.833,187.5 263.833,186.5 262.5,185.5C 267.96,182.403 267.627,181.403 261.5,182.5C 259.787,182.121 258.787,181.121 258.5,179.5C 264.758,179.19 270.924,179.524 277,180.5C 277.5,189.494 277.666,198.494 277.5,207.5C 272.329,209.198 272.329,209.531 277.5,208.5C 294.955,186.273 317.955,174.94 346.5,174.5C 394.203,176.19 424.203,200.19 436.5,246.5C 437.5,302.163 437.833,357.829 437.5,413.5C 410.167,413.5 382.833,413.5 355.5,413.5C 355.667,367.165 355.5,320.832 355,274.5C 352.498,252.997 340.498,241.331 319,239.5C 301.018,240.485 288.352,249.151 281,265.5C 280.594,269.272 279.761,272.939 278.5,276.5C 277.5,322.162 277.167,367.828 277.5,413.5C 250.167,413.5 222.833,413.5 195.5,413.5C 194.55,398.869 194.216,384.202 194.5,369.5 Z"/></g>
<g><path style="opacity:1" fill="#c8893f" d="M 157.5,379.5 C 154.833,380.167 154.833,380.833 157.5,381.5C 157.5,381.833 157.5,382.167 157.5,382.5C 153.5,383.167 153.5,383.833 157.5,384.5C 157.5,385.833 157.5,387.167 157.5,388.5C 156.842,387.602 156.176,386.602 155.5,385.5C 154.808,386.025 154.308,386.692 154,387.5C 153.51,386.207 153.343,384.873 153.5,383.5C 152.5,383.5 151.5,383.5 150.5,383.5C 150.865,388.421 149.865,388.755 147.5,384.5C 146.653,386.061 146.986,387.561 148.5,389C 146.726,390.756 145.059,390.756 143.5,389C 144.308,388.692 144.975,388.192 145.5,387.5C 144.5,386.5 143.5,385.5 142.5,384.5C 142.167,384.833 141.833,385.167 141.5,385.5C 140.277,388.224 140.277,390.891 141.5,393.5C 140.934,391.922 139.934,390.588 138.5,389.5C 137.468,391.04 136.135,391.54 134.5,391C 136.515,389.445 136.848,387.611 135.5,385.5C 134.684,387.287 133.684,388.954 132.5,390.5C 131.35,388.237 130.35,385.904 129.5,383.5C 128.253,385.006 128.253,386.506 129.5,388C 127.731,389.064 126.064,390.231 124.5,391.5C 122.59,390.452 120.756,390.452 119,391.5C 118.302,390.309 117.469,389.309 116.5,388.5C 115.312,387.316 114.145,387.316 113,388.5C 111.439,385.736 109.273,385.069 106.5,386.5C 107.991,387.244 109.491,387.91 111,388.5C 111.667,389.5 111.667,390.5 111,391.5C 109.333,387.5 107.667,387.5 106,391.5C 103.975,389.275 101.642,388.941 99,390.5C 98.7676,387.086 99.6009,386.419 101.5,388.5C 102.429,387.311 102.762,385.978 102.5,384.5C 100.708,384.366 99.0418,384.699 97.5,385.5C 97.2558,389.789 95.5891,390.456 92.5,387.5C 93.1667,386.833 93.8333,386.167 94.5,385.5C 92.3691,384.831 90.3691,384.165 88.5,383.5C 86.0072,383.329 84.1739,384.329 83,386.5C 82.3946,384.519 81.3946,384.185 80,385.5C 78.5444,384.08 77.0444,382.747 75.5,381.5C 76.6119,380.735 77.2786,379.735 77.5,378.5C 75.9382,378.267 74.6049,377.6 73.5,376.5C 73.1667,311.163 73.5,245.83 74.5,180.5C 101.458,179.342 128.458,179.176 155.5,180C 156,180.5 156.5,181 157,181.5C 157.5,247.499 157.667,313.499 157.5,379.5 Z"/></g>
<g><path style="opacity:1" fill="#c8893f" d="M 258.5,179.5 C 258.787,181.121 259.787,182.121 261.5,182.5C 267.627,181.403 267.96,182.403 262.5,185.5C 263.833,186.5 263.833,187.5 262.5,188.5C 263.325,189.386 264.325,189.719 265.5,189.5C 264.262,195.433 265.095,195.766 268,190.5C 268.5,191.667 269.333,192.5 270.5,193C 269.167,194.333 269.167,195.667 270.5,197C 268.801,197.393 267.301,196.893 266,195.5C 264.233,197.164 264.733,198.331 267.5,199C 266.614,200.902 266.947,202.735 268.5,204.5C 270.481,202.327 272.814,201.16 275.5,201C 274.809,202.067 274.309,203.234 274,204.5C 273.439,203.978 272.772,203.645 272,203.5C 270.669,204.996 269.169,206.329 267.5,207.5C 269.805,209.686 269.805,212.019 267.5,214.5C 268.002,215.521 268.668,215.688 269.5,215C 270.147,213.391 270.98,211.891 272,210.5C 271.621,212.075 271.788,213.575 272.5,215C 271.874,215.75 271.374,216.584 271,217.5C 269.506,216.253 268.006,216.253 266.5,217.5C 268.149,218.148 269.482,219.148 270.5,220.5C 266.861,223.656 266.861,226.656 270.5,229.5C 270.998,228.397 271.331,227.397 271.5,226.5C 274.393,228.279 275.56,230.612 275,233.5C 276.518,234.163 277.685,235.163 278.5,236.5C 277.022,236.238 275.689,236.571 274.5,237.5C 273.737,238.719 272.737,239.719 271.5,240.5C 272.953,242.467 273.953,244.633 274.5,247C 271.667,249.167 269.167,251.667 267,254.5C 266.107,253.289 265.274,253.289 264.5,254.5C 264.833,255.5 265.5,256.167 266.5,256.5C 268.942,254.357 271.608,254.19 274.5,256C 273.1,257.438 271.433,258.271 269.5,258.5C 269.61,261.059 268.944,263.392 267.5,265.5C 266.391,264.41 265.391,264.41 264.5,265.5C 265.025,266.192 265.692,266.692 266.5,267C 265.594,268.699 265.261,270.533 265.5,272.5C 266.822,272.67 267.989,272.337 269,271.5C 269.5,272.667 270.333,273.5 271.5,274C 269.5,275.622 267.667,277.455 266,279.5C 264.506,278.253 263.006,278.253 261.5,279.5C 262.948,280.354 264.281,281.354 265.5,282.5C 266.086,282.291 266.586,281.957 267,281.5C 268.098,282.967 269.598,283.801 271.5,284C 269.19,284.497 266.857,284.663 264.5,284.5C 264.762,285.978 264.429,287.311 263.5,288.5C 263.331,287.603 262.998,286.603 262.5,285.5C 260.609,287.016 258.609,288.35 256.5,289.5C 257.274,290.711 258.107,290.711 259,289.5C 260,292.167 261,292.167 262,289.5C 262.75,290.126 263.584,290.626 264.5,291C 261.528,293.526 261.195,296.193 263.5,299C 261.884,298.628 260.217,297.961 258.5,297C 259.464,294.731 258.798,292.898 256.5,291.5C 257.29,293.616 257.29,295.949 256.5,298.5C 257.995,298.415 258.995,299.081 259.5,300.5C 257.833,301.167 256.167,301.833 254.5,302.5C 255.5,303.167 256.5,303.833 257.5,304.5C 255.5,305.167 253.5,305.833 251.5,306.5C 249.88,308.739 250.213,310.573 252.5,312C 252.043,312.414 251.709,312.914 251.5,313.5C 252.729,314.281 254.062,314.781 255.5,315C 254.376,315.249 253.376,315.749 252.5,316.5C 253.428,317.768 253.595,319.101 253,320.5C 252.228,319.151 251.061,318.318 249.5,318C 250.725,315.371 250.392,312.871 248.5,310.5C 247.669,312.473 247.502,314.473 248,316.5C 247.107,315.289 246.274,315.289 245.5,316.5C 246.383,317.548 247.05,318.715 247.5,320C 245.895,321.922 246.228,323.089 248.5,323.5C 247.469,324.249 246.302,324.915 245,325.5C 243.369,323.519 243.535,321.519 245.5,319.5C 244.833,318.167 244.167,318.167 243.5,319.5C 242.5,321.5 241.5,323.5 240.5,325.5C 242.194,327.194 243.86,328.86 245.5,330.5C 244.311,331.429 242.978,331.762 241.5,331.5C 241.773,329.042 240.773,327.375 238.5,326.5C 237.396,327.631 237.729,328.465 239.5,329C 238.91,330.509 238.244,332.009 237.5,333.5C 236.735,332.388 235.735,331.721 234.5,331.5C 234.631,332.239 234.464,332.906 234,333.5C 233.107,332.289 232.274,332.289 231.5,333.5C 233.833,334.5 235.5,336.167 236.5,338.5C 236.167,338.833 235.833,339.167 235.5,339.5C 233.711,338.123 231.711,337.123 229.5,336.5C 227.227,337.375 226.227,339.042 226.5,341.5C 225.624,341.369 224.957,341.702 224.5,342.5C 225.85,344.386 227.517,345.886 229.5,347C 228.809,348.067 228.309,349.234 228,350.5C 225.043,348.923 222.376,349.256 220,351.5C 219.692,350.692 219.192,350.025 218.5,349.5C 216.738,350.688 215.738,352.355 215.5,354.5C 213.716,355.574 212.549,357.24 212,359.5C 211.487,358.473 210.987,357.473 210.5,356.5C 208.259,357.3 207.259,358.966 207.5,361.5C 202.959,361.669 202.626,361.002 206.5,359.5C 205.833,359.167 205.167,358.833 204.5,358.5C 202.132,359.228 201.466,360.562 202.5,362.5C 203.82,364.27 205.32,364.603 207,363.5C 207.388,365.076 206.888,366.409 205.5,367.5C 203.885,366.846 202.218,366.346 200.5,366C 200.957,365.586 201.291,365.086 201.5,364.5C 200.167,363.167 198.833,363.167 197.5,364.5C 198.39,365.711 198.39,367.045 197.5,368.5C 197.818,369.647 198.484,370.481 199.5,371C 198.5,371.5 197.5,372 196.5,372.5C 195.494,372.062 195.494,371.396 196.5,370.5C 196.043,369.702 195.376,369.369 194.5,369.5C 194.5,368.833 194.5,368.167 194.5,367.5C 197.167,366.5 197.167,365.5 194.5,364.5C 194.011,303.108 194.511,241.775 196,180.5C 216.758,179.507 237.591,179.173 258.5,179.5 Z"/></g>
<g><path style="opacity:1" fill="#c8893f" d="M 267.5,186.5 C 270.001,186.511 270.168,187.178 268,188.5C 267.536,187.906 267.369,187.239 267.5,186.5 Z"/></g>
<g><path style="opacity:1" fill="#c8893f" d="M 272.5,193.5 C 273.713,194.497 273.546,195.497 272,196.5C 271.53,195.423 271.697,194.423 272.5,193.5 Z"/></g>
<g><path style="opacity:1" fill="#c8893f" d="M 277.5,207.5 C 277.5,207.833 277.5,208.167 277.5,208.5C 272.329,209.531 272.329,209.198 277.5,207.5 Z"/></g>
<g><path style="opacity:1" fill="#c98a40" d="M 265.5,210.5 C 267.337,210.639 267.67,211.306 266.5,212.5C 265.702,212.043 265.369,211.376 265.5,210.5 Z"/></g>
<g><path style="opacity:1" fill="#c8893f" d="M 275.5,211.5 C 276.289,211.783 276.956,212.283 277.5,213C 276.184,213.528 275.517,213.028 275.5,211.5 Z"/></g>
<g><path style="opacity:1" fill="#c8893f" d="M 273.5,215.5 C 278.021,215.326 278.355,215.993 274.5,217.5C 273.702,217.043 273.369,216.376 273.5,215.5 Z"/></g>
<g><path style="opacity:1" fill="#c8893f" d="M 272.5,219.5 C 273.158,220.398 273.824,221.398 274.5,222.5C 275.609,221.41 276.609,221.41 277.5,222.5C 275.284,223.806 272.951,224.306 270.5,224C 272.037,222.89 272.703,221.39 272.5,219.5 Z"/></g>
<g><path style="opacity:1" fill="#c8893f" d="M 284.5,223.5 C 285.586,223.62 286.253,224.287 286.5,225.5C 285.965,227.916 284.965,228.083 283.5,226C 284.252,225.329 284.586,224.496 284.5,223.5 Z"/></g>
<g><path style="opacity:1" fill="#c8893f" d="M 278.5,224.5 C 279.773,225.077 279.773,225.743 278.5,226.5C 277.537,226.03 277.537,225.363 278.5,224.5 Z"/></g>
<g><path style="opacity:1" fill="#c8893f" d="M 277.5,228.5 C 278.773,229.077 278.773,229.743 277.5,230.5C 276.537,230.03 276.537,229.363 277.5,228.5 Z"/></g>
<g><path style="opacity:1" fill="#c98a40" d="M 270.5,231.5 C 272.549,231.706 272.883,232.539 271.5,234C 273.559,235.185 273.726,236.352 272,237.5C 269.41,235.995 268.91,233.995 270.5,231.5 Z"/></g>
<g><path style="opacity:1" fill="#c8893f" d="M 281.5,236.5 C 281.215,234.712 281.548,233.045 282.5,231.5C 282.833,231.667 283.167,231.833 283.5,232C 282.901,233.622 282.234,235.122 281.5,236.5 Z"/></g>
<g><path style="opacity:1" fill="#c8893f" d="M 278.5,236.5 C 279.5,236.5 280.5,236.5 281.5,236.5C 280.793,238.134 279.627,239.468 278,240.5C 277.805,239.181 277.972,237.847 278.5,236.5 Z"/></g>
<g><path style="opacity:1" fill="#c98a40" d="M 265.5,242.5 C 267.337,242.639 267.67,243.306 266.5,244.5C 265.702,244.043 265.369,243.376 265.5,242.5 Z"/></g>
<g><path style="opacity:1" fill="#c98a40" d="M 270.5,243.5 C 272.337,243.639 272.67,244.306 271.5,245.5C 270.702,245.043 270.369,244.376 270.5,243.5 Z"/></g>
<g><path style="opacity:1" fill="#c98a40" d="M 265.5,246.5 C 268.097,246.533 269.097,247.533 268.5,249.5C 266.787,249.121 265.787,248.121 265.5,246.5 Z"/></g>
<g><path style="opacity:1" fill="#c8893f" d="M 277.5,247.5 C 279.973,247.947 280.14,248.947 278,250.5C 277.517,249.552 277.351,248.552 277.5,247.5 Z"/></g>
<g><path style="opacity:1" fill="#c8893f" d="M 272.5,251.5 C 274.01,252.728 275.51,252.728 277,251.5C 278.267,252.91 278.267,254.576 277,256.5C 275.764,254.462 273.931,253.295 271.5,253C 272.056,252.617 272.389,252.117 272.5,251.5 Z"/></g>
<g><path style="opacity:1" fill="#c8893f" d="M 278.5,258.5 C 278.56,257.957 278.893,257.624 279.5,257.5C 280.583,258.365 280.749,259.365 280,260.5C 279.722,259.584 279.222,258.918 278.5,258.5 Z"/></g>
<g><path style="opacity:1" fill="#c98a40" d="M 265.5,258.5 C 267.337,258.639 267.67,259.306 266.5,260.5C 265.702,260.043 265.369,259.376 265.5,258.5 Z"/></g>
<g><path style="opacity:1" fill="#c8893f" d="M 273.5,263.5 C 276.001,263.511 276.168,264.178 274,265.5C 273.536,264.906 273.369,264.239 273.5,263.5 Z"/></g>
<g><path style="opacity:1" fill="#c98a40" d="M 262.5,268.5 C 264.337,268.639 264.67,269.306 263.5,270.5C 262.702,270.043 262.369,269.376 262.5,268.5 Z"/></g>
<g><path style="opacity:1" fill="#c98a40" d="M 265.5,272.5 C 266.278,273.156 266.944,273.989 267.5,275C 267.167,275.5 266.833,276 266.5,276.5C 260.641,275.504 260.308,274.17 265.5,272.5 Z"/></g>
<g><path style="opacity:1" fill="#c8893f" d="M 271.5,275.5 C 272.675,275.281 273.675,275.614 274.5,276.5C 272.135,280.755 271.135,280.421 271.5,275.5 Z"/></g>
<g><path style="opacity:1" fill="#c98a40" d="M 258.5,278.5 C 260.337,278.639 260.67,279.306 259.5,280.5C 258.702,280.043 258.369,279.376 258.5,278.5 Z"/></g>
<g><path style="opacity:1" fill="#c98a40" d="M 261.5,281.5 C 263.337,281.639 263.67,282.306 262.5,283.5C 261.702,283.043 261.369,282.376 261.5,281.5 Z"/></g>
<g><path style="opacity:1" fill="#c98a40" d="M 258.5,284.5 C 260.337,284.639 260.67,285.306 259.5,286.5C 258.702,286.043 258.369,285.376 258.5,284.5 Z"/></g>
<g><path style="opacity:1" fill="#c8893f" d="M 272.5,296.5 C 273.776,297.386 273.776,298.386 272.5,299.5C 271.913,298.767 271.913,297.767 272.5,296.5 Z"/></g>
<g><path style="opacity:1" fill="#c98a40" d="M 256.5,298.5 C 256.052,300.465 255.052,300.798 253.5,299.5C 254.325,298.614 255.325,298.281 256.5,298.5 Z"/></g>
<g><path style="opacity:1" fill="#c98a40" d="M 250.5,299.5 C 251.376,299.369 252.043,299.702 252.5,300.5C 247.352,309.687 246.686,309.354 250.5,299.5 Z"/></g>
<g><path style="opacity:1" fill="#c8893f" d="M 258.5,307.5 C 259.376,307.369 260.043,307.702 260.5,308.5C 259.419,312.149 257.419,312.983 254.5,311C 256.324,310.34 257.657,309.173 258.5,307.5 Z"/></g>
<g><path style="opacity:1" fill="#c98a40" d="M 241.5,314.5 C 243.337,314.639 243.67,315.306 242.5,316.5C 241.702,316.043 241.369,315.376 241.5,314.5 Z"/></g>
<g><path style="opacity:1" fill="#c98a40" d="M 236.5,321.5 C 238.337,321.639 238.67,322.306 237.5,323.5C 236.702,323.043 236.369,322.376 236.5,321.5 Z"/></g>
<g><path style="opacity:1" fill="#c8893f" d="M 248.5,323.5 C 249.14,321.668 250.14,321.335 251.5,322.5C 250.675,323.386 249.675,323.719 248.5,323.5 Z"/></g>
<g><path style="opacity:1" fill="#c98a40" d="M 234.5,329.5 C 234.639,327.663 235.306,327.33 236.5,328.5C 236.043,329.298 235.376,329.631 234.5,329.5 Z"/></g>
<g><path style="opacity:1" fill="#c98a40" d="M 234.5,329.5 C 234.5,330.167 234.5,330.833 234.5,331.5C 229.167,330.833 229.167,330.167 234.5,329.5 Z"/></g>
<g><path style="opacity:1" fill="#c98a40" d="M 227.5,332.5 C 228.995,332.415 229.995,333.081 230.5,334.5C 228.604,335.639 227.604,334.973 227.5,332.5 Z"/></g>
<g><path style="opacity:1" fill="#c8893f" d="M 229.5,341.5 C 229.517,339.972 230.184,339.472 231.5,340C 230.956,340.717 230.289,341.217 229.5,341.5 Z"/></g>
<g><path style="opacity:1" fill="#c8893f" d="M 226.5,341.5 C 227.5,341.5 228.5,341.5 229.5,341.5C 229.043,343.557 228.043,343.557 226.5,341.5 Z"/></g>
<g><path style="opacity:1" fill="#c8893f" d="M 232.5,342.5 C 233.568,341.566 234.901,341.232 236.5,341.5C 236.649,342.552 236.483,343.552 236,344.5C 234.887,343.695 233.721,343.028 232.5,342.5 Z"/></g>
<g><path style="opacity:1" fill="#c98a40" d="M 219.5,342.5 C 221.337,342.639 221.67,343.306 220.5,344.5C 219.702,344.043 219.369,343.376 219.5,342.5 Z"/></g>
<g><path style="opacity:1" fill="#c98a40" d="M 222.5,344.5 C 224.048,344.821 224.715,345.821 224.5,347.5C 220.627,347.666 219.96,346.666 222.5,344.5 Z"/></g>
<g><path style="opacity:1" fill="#c98a40" d="M 216.5,346.5 C 217.675,346.281 218.675,346.614 219.5,347.5C 217.948,348.798 216.948,348.465 216.5,346.5 Z"/></g>
<g><path style="opacity:1" fill="#c8893f" d="M 231.5,347.5 C 234.041,348.623 234.041,349.956 231.5,351.5C 231.094,350.443 231.094,349.109 231.5,347.5 Z"/></g>
<g><path style="opacity:1" fill="#c98a40" d="M 211.5,349.5 C 213.337,349.639 213.67,350.306 212.5,351.5C 211.702,351.043 211.369,350.376 211.5,349.5 Z"/></g>
<g><path style="opacity:1" fill="#c8893f" d="M 222.5,351.5 C 223.978,351.238 225.311,351.571 226.5,352.5C 225.34,352.437 224.006,352.77 222.5,353.5C 221.537,353.03 221.537,352.363 222.5,351.5 Z"/></g>
<g><path style="opacity:1" fill="#c98a40" d="M 204.5,353.5 C 205.376,353.369 206.043,353.702 206.5,354.5C 205.295,356.138 203.962,356.471 202.5,355.5C 203.243,354.818 203.909,354.151 204.5,353.5 Z"/></g>
<g><path style="opacity:1" fill="#c98a40" d="M 210.5,356.5 C 210.639,354.663 211.306,354.33 212.5,355.5C 212.043,356.298 211.376,356.631 210.5,356.5 Z"/></g>
<g><path style="opacity:1" fill="#c8893f" d="M 215.5,354.5 C 219.06,356.283 219.06,357.283 215.5,357.5C 215.5,356.5 215.5,355.5 215.5,354.5 Z"/></g>
<g><path style="opacity:1" fill="#c8893f" d="M 218.5,358.5 C 219.289,358.783 219.956,359.283 220.5,360C 219.184,360.528 218.517,360.028 218.5,358.5 Z"/></g>
<g><path style="opacity:1" fill="#c98a40" d="M 197.5,360.5 C 199.337,360.639 199.67,361.306 198.5,362.5C 197.702,362.043 197.369,361.376 197.5,360.5 Z"/></g>
<g><path style="opacity:1" fill="#c8893f" d="M 223.5,364.5 C 224.386,363.224 225.386,363.224 226.5,364.5C 225.767,365.087 224.767,365.087 223.5,364.5 Z"/></g>
<g><path style="opacity:1" fill="#ca8a40" d="M 194.5,364.5 C 197.167,365.5 197.167,366.5 194.5,367.5C 194.5,366.5 194.5,365.5 194.5,364.5 Z"/></g>
<g><path style="opacity:1" fill="#c98a40" d="M 79.5,378.5 C 78.8333,378.5 78.1667,378.5 77.5,378.5C 78.1667,375.833 78.8333,375.833 79.5,378.5 Z"/></g>
<g><path style="opacity:1" fill="#c98a40" d="M 79.5,378.5 C 81.337,378.639 81.6704,379.306 80.5,380.5C 79.7025,380.043 79.3691,379.376 79.5,378.5 Z"/></g>
<g><path style="opacity:1" fill="#c98a40" d="M 88.5,381.5 C 86.663,381.361 86.3296,380.694 87.5,379.5C 88.2975,379.957 88.6309,380.624 88.5,381.5 Z"/></g>
<g><path style="opacity:1" fill="#ca8a40" d="M 157.5,379.5 C 157.5,380.167 157.5,380.833 157.5,381.5C 154.833,380.833 154.833,380.167 157.5,379.5 Z"/></g>
<g><path style="opacity:1" fill="#c98940" d="M 73.5,376.5 C 74.6049,377.6 75.9382,378.267 77.5,378.5C 77.2786,379.735 76.6119,380.735 75.5,381.5C 77.0444,382.747 78.5444,384.08 80,385.5C 81.3946,384.185 82.3946,384.519 83,386.5C 84.1739,384.329 86.0072,383.329 88.5,383.5C 90.3691,384.165 92.3691,384.831 94.5,385.5C 93.8333,386.167 93.1667,386.833 92.5,387.5C 95.5891,390.456 97.2558,389.789 97.5,385.5C 99.0418,384.699 100.708,384.366 102.5,384.5C 102.762,385.978 102.429,387.311 101.5,388.5C 99.6009,386.419 98.7676,387.086 99,390.5C 101.642,388.941 103.975,389.275 106,391.5C 107.667,387.5 109.333,387.5 111,391.5C 111.667,390.5 111.667,389.5 111,388.5C 109.491,387.91 107.991,387.244 106.5,386.5C 109.273,385.069 111.439,385.736 113,388.5C 114.145,387.316 115.312,387.316 116.5,388.5C 117.469,389.309 118.302,390.309 119,391.5C 120.756,390.452 122.59,390.452 124.5,391.5C 126.064,390.231 127.731,389.064 129.5,388C 128.253,386.506 128.253,385.006 129.5,383.5C 130.35,385.904 131.35,388.237 132.5,390.5C 133.684,388.954 134.684,387.287 135.5,385.5C 136.848,387.611 136.515,389.445 134.5,391C 136.135,391.54 137.468,391.04 138.5,389.5C 139.934,390.588 140.934,391.922 141.5,393.5C 140.277,390.891 140.277,388.224 141.5,385.5C 141.833,385.167 142.167,384.833 142.5,384.5C 143.5,385.5 144.5,386.5 145.5,387.5C 144.975,388.192 144.308,388.692 143.5,389C 145.059,390.756 146.726,390.756 148.5,389C 146.986,387.561 146.653,386.061 147.5,384.5C 149.865,388.755 150.865,388.421 150.5,383.5C 151.5,383.5 152.5,383.5 153.5,383.5C 153.343,384.873 153.51,386.207 154,387.5C 154.308,386.692 154.808,386.025 155.5,385.5C 156.176,386.602 156.842,387.602 157.5,388.5C 157.816,396.752 157.482,404.919 156.5,413C 129.167,413.667 101.833,413.667 74.5,413C 73.5115,400.914 73.1782,388.747 73.5,376.5 Z"/></g>
<g><path style="opacity:1" fill="#c98a40" d="M 96.5,380.5 C 98.337,380.639 98.6704,381.306 97.5,382.5C 96.7025,382.043 96.3691,381.376 96.5,380.5 Z"/></g>
<g><path style="opacity:1" fill="#c98a40" d="M 140.5,380.5 C 142.337,380.639 142.67,381.306 141.5,382.5C 140.702,382.043 140.369,381.376 140.5,380.5 Z"/></g>
<g><path style="opacity:1" fill="#c98a40" d="M 88.5,381.5 C 91.1667,382.167 91.1667,382.833 88.5,383.5C 88.5,382.833 88.5,382.167 88.5,381.5 Z"/></g>
<g><path style="opacity:1" fill="#c98a40" d="M 106.5,381.5 C 107.995,381.415 108.995,382.081 109.5,383.5C 108.167,384.833 106.833,384.833 105.5,383.5C 105.863,382.817 106.196,382.15 106.5,381.5 Z"/></g>
<g><path style="opacity:1" fill="#c98a40" d="M 102.5,384.5 C 102.639,382.663 103.306,382.33 104.5,383.5C 104.043,384.298 103.376,384.631 102.5,384.5 Z"/></g>
<g><path style="opacity:1" fill="#c98a40" d="M 113.5,382.5 C 114.586,382.62 115.253,383.287 115.5,384.5C 115.167,385.167 114.833,385.833 114.5,386.5C 113.571,385.311 113.238,383.978 113.5,382.5 Z"/></g>
<g><path style="opacity:1" fill="#c98a40" d="M 134.5,382.5 C 136.337,382.639 136.67,383.306 135.5,384.5C 134.702,384.043 134.369,383.376 134.5,382.5 Z"/></g>
<g><path style="opacity:1" fill="#ca8a40" d="M 157.5,382.5 C 157.5,383.167 157.5,383.833 157.5,384.5C 153.5,383.833 153.5,383.167 157.5,382.5 Z"/></g>
<g><path style="opacity:1" fill="#c98a40" d="M 97.5,385.5 C 95.663,385.361 95.3296,384.694 96.5,383.5C 97.2975,383.957 97.6309,384.624 97.5,385.5 Z"/></g>
<g><path style="opacity:1" fill="#c98a40" d="M 122.5,383.5 C 123.833,383.5 125.167,383.5 126.5,383.5C 126.785,385.288 126.452,386.955 125.5,388.5C 124.305,386.879 123.305,385.213 122.5,383.5 Z"/></g>
<g><path style="opacity:1" fill="#c98a40" d="M 131.5,383.5 C 133.337,383.639 133.67,384.306 132.5,385.5C 131.702,385.043 131.369,384.376 131.5,383.5 Z"/></g>
<g><path style="opacity:1" fill="#c8893f" d="M 87.5,385.5 C 91.3909,386.647 91.2242,387.647 87,388.5C 86.5304,387.423 86.6971,386.423 87.5,385.5 Z"/></g>
<g><path style="opacity:1" fill="#c98a40" d="M 103.5,385.5 C 105.337,385.639 105.67,386.306 104.5,387.5C 103.702,387.043 103.369,386.376 103.5,385.5 Z"/></g>
<g><path style="opacity:1" fill="#c8893f" d="M 80.5,386.5 C 83.2401,388.828 82.5734,390.162 78.5,390.5C 77.6919,390.192 77.0253,389.692 76.5,389C 77.8584,388.066 79.1917,387.232 80.5,386.5 Z"/></g>
<g><path style="opacity:1" fill="#c98a40" d="M 116.5,388.5 C 116.791,387.351 117.624,386.684 119,386.5C 119.833,386.833 120.667,387.167 121.5,387.5C 119.955,388.452 118.288,388.785 116.5,388.5 Z"/></g>
<g><path style="opacity:1" fill="#c8893f" d="M 107.5,391.5 C 109.973,391.947 110.14,392.947 108,394.5C 107.517,393.552 107.351,392.552 107.5,391.5 Z"/></g>
<g><path style="opacity:1" fill="#c8893f" d="M 146.5,392.5 C 147.376,392.369 148.043,392.702 148.5,393.5C 147.277,394.614 145.944,394.781 144.5,394C 145.416,393.722 146.082,393.222 146.5,392.5 Z"/></g>
<g><path style="opacity:1" fill="#c8893f" d="M 141.5,393.5 C 141.414,394.496 141.748,395.329 142.5,396C 141.552,396.483 140.552,396.649 139.5,396.5C 139.427,394.973 140.094,393.973 141.5,393.5 Z"/></g>
<g><path style="opacity:1" fill="#c8893f" d="M 139.5,396.5 C 138.292,397.782 136.958,397.782 135.5,396.5C 136.7,395.708 138.033,395.708 139.5,396.5 Z"/></g>
<g><path style="opacity:1" fill="#c8893f" d="M 108.5,397.5 C 110.337,397.639 110.67,398.306 109.5,399.5C 108.702,399.043 108.369,398.376 108.5,397.5 Z"/></g>
<g><path style="opacity:1" fill="#c8893f" d="M 125.5,400.5 C 126.043,400.56 126.376,400.893 126.5,401.5C 125.635,402.583 124.635,402.749 123.5,402C 124.416,401.722 125.082,401.222 125.5,400.5 Z"/></g>
</svg>
