<?xml version="1.0" encoding="UTF-8"?>
<!DOCTYPE svg PUBLIC "-//W3C//DTD SVG 1.1//EN" "http://www.w3.org/Graphics/SVG/1.1/DTD/svg11.dtd">
<svg xmlns="http://www.w3.org/2000/svg" version="1.1" width="500px" height="500px" style="shape-rendering:geometricPrecision; text-rendering:geometricPrecision; image-rendering:optimizeQuality; fill-rule:evenodd; clip-rule:evenodd" xmlns:xlink="http://www.w3.org/1999/xlink">
<g><path style="opacity:1" fill="#c9893f" d="M 216.5,80.5 C 217.833,84.5 219.167,84.5 220.5,80.5C 220.833,80.5 221.167,80.5 221.5,80.5C 221.369,81.3764 221.702,82.0431 222.5,82.5C 223.417,81.8728 224.417,81.5394 225.5,81.5C 225.751,83.1703 226.418,84.6703 227.5,86C 226.552,86.4828 225.552,86.6495 224.5,86.5C 225.949,88.1644 227.949,88.9977 230.5,89C 229.692,89.3076 229.025,89.8076 228.5,90.5C 230.833,92.3411 231.166,94.5078 229.5,97C 229.78,98.395 230.447,99.5617 231.5,100.5C 231.998,99.3966 232.331,98.3966 232.5,97.5C 233.631,99.0745 233.798,100.741 233,102.5C 231.887,101.289 230.72,101.289 229.5,102.5C 228.167,103.5 228.167,104.5 229.5,105.5C 230.833,102.833 232.167,102.833 233.5,105.5C 234.219,103.483 235.386,101.817 237,100.5C 238.059,100.63 238.892,101.13 239.5,102C 238.244,102.417 237.577,103.25 237.5,104.5C 239.57,104.583 239.903,105.583 238.5,107.5C 238.818,108.647 239.484,109.481 240.5,110C 238.308,111.359 236.641,113.192 235.5,115.5C 235.833,115.833 236.167,116.167 236.5,116.5C 239.475,113.701 240.475,114.034 239.5,117.5C 239.5,117.833 239.5,118.167 239.5,118.5C 209.831,118.333 180.165,118.5 150.5,119C 140.271,122.895 132.104,129.395 126,138.5C 124.393,142.765 123.06,147.098 122,151.5C 121.5,211.832 121.333,272.166 121.5,332.5C 118.833,333.167 118.833,333.833 121.5,334.5C 121.5,334.833 121.5,335.167 121.5,335.5C 119.822,336.747 118.489,338.414 117.5,340.5C 116.35,338.237 115.35,335.904 114.5,333.5C 113.253,335.006 113.253,336.506 114.5,338C 112.731,339.064 111.064,340.231 109.5,341.5C 107.59,340.452 105.756,340.452 104,341.5C 103.302,340.309 102.469,339.309 101.5,338.5C 100.312,337.316 99.1455,337.316 98,338.5C 96.4393,335.736 94.2726,335.069 91.5,336.5C 92.9905,337.244 94.4905,337.91 96,338.5C 96.6667,339.5 96.6667,340.5 96,341.5C 94.3333,337.5 92.6667,337.5 91,341.5C 89.5993,339.808 87.7659,339.141 85.5,339.5C 85.5,339.167 85.5,338.833 85.5,338.5C 87.1765,337.817 87.8432,336.483 87.5,334.5C 86.8333,334.5 86.1667,334.5 85.5,334.5C 85.3333,269.832 85.5,205.166 86,140.5C 96.1994,105.958 119.033,86.1251 154.5,81C 175.164,80.5 195.831,80.3334 216.5,80.5 Z"/></g>
<g><path style="opacity:1" fill="#c98a3f" d="M 216.5,80.5 C 217.833,80.5 219.167,80.5 220.5,80.5C 219.167,84.5 217.833,84.5 216.5,80.5 Z"/></g>
<g><path style="opacity:1" fill="#c98a3f" d="M 221.5,80.5 C 222.833,80.5 224.167,80.5 225.5,80.5C 225.5,80.8333 225.5,81.1667 225.5,81.5C 224.417,81.5394 223.417,81.8728 222.5,82.5C 221.702,82.0431 221.369,81.3764 221.5,80.5 Z"/></g>
<g><path style="opacity:1" fill="#ca8a41" d="M 225.5,80.5 C 264.835,80.3333 304.168,80.5 343.5,81C 379.073,86.2443 401.907,106.078 412,140.5C 412.667,210.167 412.667,279.833 412,349.5C 402.298,380.872 381.465,400.039 349.5,407C 282.5,407.667 215.5,407.667 148.5,407C 119.506,400.948 99.339,384.115 88,356.5C 86.1115,351.01 85.2781,345.343 85.5,339.5C 87.7659,339.141 89.5993,339.808 91,341.5C 92.6667,337.5 94.3333,337.5 96,341.5C 96.6667,340.5 96.6667,339.5 96,338.5C 94.4905,337.91 92.9905,337.244 91.5,336.5C 94.2726,335.069 96.4393,335.736 98,338.5C 99.1455,337.316 100.312,337.316 101.5,338.5C 102.469,339.309 103.302,340.309 104,341.5C 105.756,340.452 107.59,340.452 109.5,341.5C 111.064,340.231 112.731,339.064 114.5,338C 113.253,336.506 113.253,335.006 114.5,333.5C 115.35,335.904 116.35,338.237 117.5,340.5C 118.489,338.414 119.822,336.747 121.5,335.5C 121.5,335.833 121.5,336.167 121.5,336.5C 121.703,338.39 121.037,339.89 119.5,341C 121.193,341.484 122.527,340.984 123.5,339.5C 123.298,341.95 123.631,344.283 124.5,346.5C 131.387,361.562 143.054,369.729 159.5,371C 219.5,371.667 279.5,371.667 339.5,371C 360.028,368.474 372.195,356.974 376,336.5C 376.667,274.833 376.667,213.167 376,151.5C 372.96,135.119 363.46,124.286 347.5,119C 312.835,118.5 278.168,118.333 243.5,118.5C 243.631,117.624 243.298,116.957 242.5,116.5C 241.583,117.127 240.583,117.461 239.5,117.5C 240.475,114.034 239.475,113.701 236.5,116.5C 236.167,116.167 235.833,115.833 235.5,115.5C 236.641,113.192 238.308,111.359 240.5,110C 239.484,109.481 238.818,108.647 238.5,107.5C 239.903,105.583 239.57,104.583 237.5,104.5C 237.577,103.25 238.244,102.417 239.5,102C 238.892,101.13 238.059,100.63 237,100.5C 235.386,101.817 234.219,103.483 233.5,105.5C 232.167,102.833 230.833,102.833 229.5,105.5C 228.167,104.5 228.167,103.5 229.5,102.5C 230.72,101.289 231.887,101.289 233,102.5C 233.798,100.741 233.631,99.0745 232.5,97.5C 232.331,98.3966 231.998,99.3966 231.5,100.5C 230.447,99.5617 229.78,98.395 229.5,97C 231.166,94.5078 230.833,92.3411 228.5,90.5C 229.025,89.8076 229.692,89.3076 230.5,89C 227.949,88.9977 225.949,88.1644 224.5,86.5C 225.552,86.6495 226.552,86.4828 227.5,86C 226.418,84.6703 225.751,83.1703 225.5,81.5C 225.5,81.1667 225.5,80.8333 225.5,80.5 Z"/></g>
<g><path style="opacity:1" fill="#c98a3f" d="M 213.5,83.5 C 215.337,83.6395 215.67,84.3061 214.5,85.5C 213.702,85.0431 213.369,84.3764 213.5,83.5 Z"/></g>
<g><path style="opacity:1" fill="#c98940" d="M 224.5,86.5 C 223.691,87.4687 222.691,88.3021 221.5,89C 222.711,89.8928 222.711,90.7261 221.5,91.5C 218.403,90.2291 218.069,88.7291 220.5,87C 219.289,86.1072 219.289,85.2739 220.5,84.5C 221.736,83.7542 223.07,83.4208 224.5,83.5C 224.5,84.5 224.5,85.5 224.5,86.5 Z"/></g>
<g><path style="opacity:1" fill="#c98a3f" d="M 216.5,84.5 C 218.337,84.6395 218.67,85.3061 217.5,86.5C 216.702,86.0431 216.369,85.3764 216.5,84.5 Z"/></g>
<g><path style="opacity:1" fill="#c8893f" d="M 232.5,88.5 C 234.134,89.2066 235.468,90.3732 236.5,92C 235.167,93 235.167,94 236.5,95C 236.167,95.1667 235.833,95.3333 235.5,95.5C 235.085,92.9208 233.752,91.0874 231.5,90C 232.056,89.6174 232.389,89.1174 232.5,88.5 Z"/></g>
<g><path style="opacity:1" fill="#c98a3f" d="M 222.5,92.5 C 225.012,93.2162 225.012,94.2162 222.5,95.5C 221.438,94.5754 221.438,93.5754 222.5,92.5 Z"/></g>
<g><path style="opacity:1" fill="#c98a3f" d="M 226.5,93.5 C 228.337,93.6395 228.67,94.3061 227.5,95.5C 226.702,95.0431 226.369,94.3764 226.5,93.5 Z"/></g>
<g><path style="opacity:1" fill="#c98a3f" d="M 225.5,99.5 C 227.337,99.6395 227.67,100.306 226.5,101.5C 225.702,101.043 225.369,100.376 225.5,99.5 Z"/></g>
<g><path style="opacity:1" fill="#c98a3f" d="M 237.5,104.5 C 237.5,105.833 236.833,106.5 235.5,106.5C 235.5,105.167 236.167,104.5 237.5,104.5 Z"/></g>
<g><path style="opacity:1" fill="#c8893f" d="M 240.5,105.5 C 245.421,105.135 245.755,106.135 241.5,108.5C 240.614,107.675 240.281,106.675 240.5,105.5 Z"/></g>
<g><path style="opacity:1" fill="#c98a3f" d="M 235.5,106.5 C 235.361,108.337 234.694,108.67 233.5,107.5C 233.957,106.702 234.624,106.369 235.5,106.5 Z"/></g>
<g><path style="opacity:1" fill="#c8893f" d="M 245.5,112.5 C 244.384,109.172 245.717,107.672 249.5,108C 247.714,109.196 246.381,110.696 245.5,112.5 Z"/></g>
<g><path style="opacity:1" fill="#c8893f" d="M 245.5,112.5 C 244.365,114.088 243.031,114.421 241.5,113.5C 242.689,112.571 244.022,112.238 245.5,112.5 Z"/></g>
<g><path style="opacity:1" fill="#c8893f" d="M 247.5,113.5 C 248.773,114.077 248.773,114.743 247.5,115.5C 246.537,115.03 246.537,114.363 247.5,113.5 Z"/></g>
<g><path style="opacity:1" fill="#c8893f" d="M 243.5,118.5 C 242.167,118.5 240.833,118.5 239.5,118.5C 239.5,118.167 239.5,117.833 239.5,117.5C 240.583,117.461 241.583,117.127 242.5,116.5C 243.298,116.957 243.631,117.624 243.5,118.5 Z"/></g>
<g><path style="opacity:1" fill="#c98a40" d="M 328.5,139.5 C 344.668,137.538 355.168,144.205 360,159.5C 359.558,176.776 350.724,186.109 333.5,187.5C 316.637,182.753 309.803,171.753 313,154.5C 317.062,148.27 322.228,143.27 328.5,139.5 Z"/></g>
<g><path style="opacity:1" fill="#c8893f" d="M 250.5,160.5 C 251.167,163.167 251.833,163.167 252.5,160.5C 253.167,160.5 253.833,160.5 254.5,160.5C 253.133,162.142 252.799,163.808 253.5,165.5C 255.051,164.2 256.051,162.533 256.5,160.5C 256.833,160.5 257.167,160.5 257.5,160.5C 257.146,162.975 256.646,165.308 256,167.5C 254.506,166.253 253.006,166.253 251.5,167.5C 253.149,168.148 254.482,169.148 255.5,170.5C 251.861,173.656 251.861,176.656 255.5,179.5C 255.998,178.397 256.331,177.397 256.5,176.5C 259.393,178.279 260.56,180.612 260,183.5C 261.518,184.163 262.685,185.163 263.5,186.5C 262.022,186.238 260.689,186.571 259.5,187.5C 258.737,188.719 257.737,189.719 256.5,190.5C 258.104,192.179 258.771,194.179 258.5,196.5C 227.125,194.917 207.625,209.251 200,239.5C 199.495,250.422 201.828,260.755 207,270.5C 209.649,275.311 213.149,279.311 217.5,282.5C 216.957,282.56 216.624,282.893 216.5,283.5C 217.577,284.705 218.91,285.372 220.5,285.5C 221.292,286.967 221.292,288.3 220.5,289.5C 218.081,287.351 215.414,286.685 212.5,287.5C 211.571,288.689 211.238,290.022 211.5,291.5C 210.624,291.369 209.957,291.702 209.5,292.5C 210.85,294.386 212.517,295.886 214.5,297C 213.809,298.067 213.309,299.234 213,300.5C 210.043,298.923 207.376,299.256 205,301.5C 204.692,300.692 204.192,300.025 203.5,299.5C 201.738,300.688 200.738,302.355 200.5,304.5C 198.716,305.574 197.549,307.24 197,309.5C 196.487,308.473 195.987,307.473 195.5,306.5C 194.222,306.782 193.222,307.449 192.5,308.5C 190.973,308.573 189.973,307.906 189.5,306.5C 192.021,303.678 191.354,303.011 187.5,304.5C 181.043,298.254 175.543,291.254 171,283.5C 155.003,243.854 162.503,209.354 193.5,180C 210.003,166.572 229.003,160.072 250.5,160.5 Z"/></g>
<g><path style="opacity:1" fill="#c98a3f" d="M 250.5,160.5 C 251.167,160.5 251.833,160.5 252.5,160.5C 251.833,163.167 251.167,163.167 250.5,160.5 Z"/></g>
<g><path style="opacity:1" fill="#c98a3f" d="M 254.5,160.5 C 255.167,160.5 255.833,160.5 256.5,160.5C 256.051,162.533 255.051,164.2 253.5,165.5C 252.799,163.808 253.133,162.142 254.5,160.5 Z"/></g>
<g><path style="opacity:1" fill="#c98940" d="M 257.5,160.5 C 293.864,165.341 318.697,185.007 332,219.5C 342.49,274.129 321.657,310.629 269.5,329C 243.711,334.12 220.045,329.454 198.5,315C 195.932,313.269 193.932,311.102 192.5,308.5C 193.222,307.449 194.222,306.782 195.5,306.5C 195.987,307.473 196.487,308.473 197,309.5C 197.549,307.24 198.716,305.574 200.5,304.5C 200.738,302.355 201.738,300.688 203.5,299.5C 204.192,300.025 204.692,300.692 205,301.5C 207.376,299.256 210.043,298.923 213,300.5C 213.309,299.234 213.809,298.067 214.5,297C 212.517,295.886 210.85,294.386 209.5,292.5C 209.957,291.702 210.624,291.369 211.5,291.5C 211.238,290.022 211.571,288.689 212.5,287.5C 215.414,286.685 218.081,287.351 220.5,289.5C 221.292,288.3 221.292,286.967 220.5,285.5C 225.982,287.85 231.316,290.35 236.5,293C 272.565,297.145 293.232,281.311 298.5,245.5C 297.328,222.638 285.994,207.304 264.5,199.5C 263.833,196.833 263.167,196.833 262.5,199.5C 261.128,198.488 259.795,197.488 258.5,196.5C 258.771,194.179 258.104,192.179 256.5,190.5C 257.737,189.719 258.737,188.719 259.5,187.5C 260.689,186.571 262.022,186.238 263.5,186.5C 262.685,185.163 261.518,184.163 260,183.5C 260.56,180.612 259.393,178.279 256.5,176.5C 256.331,177.397 255.998,178.397 255.5,179.5C 251.861,176.656 251.861,173.656 255.5,170.5C 254.482,169.148 253.149,168.148 251.5,167.5C 253.006,166.253 254.506,166.253 256,167.5C 256.646,165.308 257.146,162.975 257.5,160.5 Z"/></g>
<g><path style="opacity:1" fill="#c8893f" d="M 258.5,165.5 C 263.021,165.326 263.355,165.993 259.5,167.5C 258.702,167.043 258.369,166.376 258.5,165.5 Z"/></g>
<g><path style="opacity:1" fill="#c8893f" d="M 257.5,169.5 C 258.158,170.398 258.824,171.398 259.5,172.5C 260.609,171.41 261.609,171.41 262.5,172.5C 260.284,173.806 257.951,174.306 255.5,174C 257.037,172.89 257.703,171.39 257.5,169.5 Z"/></g>
<g><path style="opacity:1" fill="#c8893f" d="M 269.5,173.5 C 270.586,173.62 271.253,174.287 271.5,175.5C 270.965,177.916 269.965,178.083 268.5,176C 269.252,175.329 269.586,174.496 269.5,173.5 Z"/></g>
<g><path style="opacity:1" fill="#c98a3f" d="M 255.5,181.5 C 257.549,181.706 257.883,182.539 256.5,184C 258.559,185.185 258.726,186.352 257,187.5C 254.41,185.995 253.91,183.995 255.5,181.5 Z"/></g>
<g><path style="opacity:1" fill="#c8893f" d="M 266.5,186.5 C 266.215,184.712 266.548,183.045 267.5,181.5C 267.833,181.667 268.167,181.833 268.5,182C 267.901,183.622 267.234,185.122 266.5,186.5 Z"/></g>
<g><path style="opacity:1" fill="#c8893f" d="M 263.5,186.5 C 264.5,186.5 265.5,186.5 266.5,186.5C 265.793,188.134 264.627,189.468 263,190.5C 262.805,189.181 262.972,187.847 263.5,186.5 Z"/></g>
<g><path style="opacity:1" fill="#c98a3f" d="M 250.5,192.5 C 252.337,192.639 252.67,193.306 251.5,194.5C 250.702,194.043 250.369,193.376 250.5,192.5 Z"/></g>
<g><path style="opacity:1" fill="#c98a3f" d="M 255.5,193.5 C 257.337,193.639 257.67,194.306 256.5,195.5C 255.702,195.043 255.369,194.376 255.5,193.5 Z"/></g>
<g><path style="opacity:1" fill="#c8893f" d="M 264.5,199.5 C 263.833,199.5 263.167,199.5 262.5,199.5C 263.167,196.833 263.833,196.833 264.5,199.5 Z"/></g>
<g><path style="opacity:1" fill="#c98a40" d="M 212.5,282.5 C 213.995,282.415 214.995,283.081 215.5,284.5C 213.604,285.639 212.604,284.973 212.5,282.5 Z"/></g>
<g><path style="opacity:1" fill="#c98a40" d="M 217.5,282.5 C 218.694,283.272 219.694,284.272 220.5,285.5C 218.91,285.372 217.577,284.705 216.5,283.5C 216.624,282.893 216.957,282.56 217.5,282.5 Z"/></g>
<g><path style="opacity:1" fill="#c8893f" d="M 211.5,291.5 C 213.355,291.272 214.188,291.939 214,293.5C 213.005,292.934 212.172,292.267 211.5,291.5 Z"/></g>
<g><path style="opacity:1" fill="#c8893f" d="M 217.5,292.5 C 218.568,291.566 219.901,291.232 221.5,291.5C 221.649,292.552 221.483,293.552 221,294.5C 219.887,293.695 218.721,293.028 217.5,292.5 Z"/></g>
<g><path style="opacity:1" fill="#c98a40" d="M 204.5,292.5 C 206.337,292.639 206.67,293.306 205.5,294.5C 204.702,294.043 204.369,293.376 204.5,292.5 Z"/></g>
<g><path style="opacity:1" fill="#c98a40" d="M 207.5,294.5 C 209.048,294.821 209.715,295.821 209.5,297.5C 205.627,297.666 204.96,296.666 207.5,294.5 Z"/></g>
<g><path style="opacity:1" fill="#c98a40" d="M 201.5,296.5 C 202.675,296.281 203.675,296.614 204.5,297.5C 202.948,298.798 201.948,298.465 201.5,296.5 Z"/></g>
<g><path style="opacity:1" fill="#c8893f" d="M 216.5,297.5 C 219.041,298.623 219.041,299.956 216.5,301.5C 216.094,300.443 216.094,299.109 216.5,297.5 Z"/></g>
<g><path style="opacity:1" fill="#c98a40" d="M 196.5,299.5 C 198.337,299.639 198.67,300.306 197.5,301.5C 196.702,301.043 196.369,300.376 196.5,299.5 Z"/></g>
<g><path style="opacity:1" fill="#c8893f" d="M 207.5,301.5 C 208.978,301.238 210.311,301.571 211.5,302.5C 210.34,302.437 209.006,302.77 207.5,303.5C 206.537,303.03 206.537,302.363 207.5,301.5 Z"/></g>
<g><path style="opacity:1" fill="#c98a40" d="M 189.5,306.5 C 188.5,306.167 187.833,305.5 187.5,304.5C 191.354,303.011 192.021,303.678 189.5,306.5 Z"/></g>
<g><path style="opacity:1" fill="#c98a40" d="M 195.5,306.5 C 195.639,304.663 196.306,304.33 197.5,305.5C 197.043,306.298 196.376,306.631 195.5,306.5 Z"/></g>
<g><path style="opacity:1" fill="#c8893f" d="M 200.5,304.5 C 204.06,306.283 204.06,307.283 200.5,307.5C 200.5,306.5 200.5,305.5 200.5,304.5 Z"/></g>
<g><path style="opacity:1" fill="#c8893f" d="M 208.5,314.5 C 209.386,313.224 210.386,313.224 211.5,314.5C 210.767,315.087 209.767,315.087 208.5,314.5 Z"/></g>
<g><path style="opacity:1" fill="#c98a40" d="M 91.5,331.5 C 92.9953,331.415 93.9953,332.081 94.5,333.5C 93.1667,334.833 91.8333,334.833 90.5,333.5C 90.8627,332.817 91.1961,332.15 91.5,331.5 Z"/></g>
<g><path style="opacity:1" fill="#c98a40" d="M 87.5,334.5 C 87.6395,332.663 88.3061,332.33 89.5,333.5C 89.0431,334.298 88.3764,334.631 87.5,334.5 Z"/></g>
<g><path style="opacity:1" fill="#c98a40" d="M 98.5,332.5 C 99.5862,332.62 100.253,333.287 100.5,334.5C 100.167,335.167 99.8333,335.833 99.5,336.5C 98.5713,335.311 98.238,333.978 98.5,332.5 Z"/></g>
<g><path style="opacity:1" fill="#c98a40" d="M 121.5,332.5 C 121.5,333.167 121.5,333.833 121.5,334.5C 118.833,333.833 118.833,333.167 121.5,332.5 Z"/></g>
<g><path style="opacity:1" fill="#c98a40" d="M 107.5,333.5 C 108.833,333.5 110.167,333.5 111.5,333.5C 111.785,335.288 111.452,336.955 110.5,338.5C 109.305,336.879 108.305,335.213 107.5,333.5 Z"/></g>
<g><path style="opacity:1" fill="#c98a40" d="M 116.5,333.5 C 118.337,333.639 118.67,334.306 117.5,335.5C 116.702,335.043 116.369,334.376 116.5,333.5 Z"/></g>
<g><path style="opacity:1" fill="#c98a40" d="M 85.5,334.5 C 86.1667,334.5 86.8333,334.5 87.5,334.5C 87.8432,336.483 87.1765,337.817 85.5,338.5C 85.5,337.167 85.5,335.833 85.5,334.5 Z"/></g>
<g><path style="opacity:1" fill="#c98a40" d="M 88.5,335.5 C 90.337,335.639 90.6704,336.306 89.5,337.5C 88.7025,337.043 88.3691,336.376 88.5,335.5 Z"/></g>
<g><path style="opacity:1" fill="#c98a40" d="M 101.5,338.5 C 101.791,337.351 102.624,336.684 104,336.5C 104.833,336.833 105.667,337.167 106.5,337.5C 104.955,338.452 103.288,338.785 101.5,338.5 Z"/></g>
<g><path style="opacity:1" fill="#c8893f" d="M 121.5,336.5 C 122.401,337.29 123.068,338.29 123.5,339.5C 122.527,340.984 121.193,341.484 119.5,341C 121.037,339.89 121.703,338.39 121.5,336.5 Z"/></g>
<g><path style="opacity:1" fill="#c8893f" d="M 92.5,341.5 C 94.9732,341.947 95.1399,342.947 93,344.5C 92.5172,343.552 92.3505,342.552 92.5,341.5 Z"/></g>
<g><path style="opacity:1" fill="#c8893f" d="M 124.5,346.5 C 123.292,347.782 121.958,347.782 120.5,346.5C 121.7,345.708 123.033,345.708 124.5,346.5 Z"/></g>
<g><path style="opacity:1" fill="#c8893f" d="M 93.5,347.5 C 95.337,347.639 95.6704,348.306 94.5,349.5C 93.7025,349.043 93.3691,348.376 93.5,347.5 Z"/></g>
<g><path style="opacity:1" fill="#c8893f" d="M 110.5,350.5 C 111.043,350.56 111.376,350.893 111.5,351.5C 110.635,352.583 109.635,352.749 108.5,352C 109.416,351.722 110.082,351.222 110.5,350.5 Z"/></g>
</svg>
